<svg version="1.1" id="Layer_1" xmlns="http://www.w3.org/2000/svg" xmlns:xlink="http://www.w3.org/1999/xlink" x="0px" y="0px"
	 width="100%" viewBox="0 0 400 400" enable-background="new 0 0 400 400" xml:space="preserve">

	d="
M220.000000,401.000000 
	C146.666672,401.000000 73.833336,401.000000 1.000000,401.000000 
	C1.000000,267.666656 1.000000,134.333328 1.000000,1.000000 
	C134.333328,1.000000 267.666656,1.000000 401.000000,1.000000 
	C401.000000,134.333328 401.000000,267.666656 401.000000,401.000000 
	C340.833344,401.000000 280.666656,401.000000 220.000000,401.000000 
M234.118164,74.903381 
	C234.118164,74.903381 234.069443,74.890236 233.873306,74.287109 
	C233.266129,74.154472 232.658951,74.021835 232.040649,73.990135 
	C232.040649,73.990135 232.065353,73.886703 231.867188,73.281525 
	C231.255768,73.150406 230.644333,73.019287 230.019714,72.974052 
	C230.019714,72.974052 230.078766,72.910316 229.884674,72.301140 
	C229.274796,72.164093 228.664917,72.027046 228.024338,71.991707 
	C228.024338,71.991707 228.063828,71.887321 227.771179,71.196953 
	C221.437027,68.798607 215.195267,65.951653 207.177139,67.046280 
	C193.200699,66.264183 179.912949,68.211868 167.626938,75.653290 
	C154.386429,83.672836 144.582443,94.426140 138.327011,109.181274 
	C136.202301,113.110817 134.077606,117.040359 131.392578,121.138130 
	C130.974945,121.754395 130.557312,122.370667 129.973953,123.384895 
	C129.973953,123.384895 129.923935,123.813072 129.167694,123.936752 
	C127.478447,126.964012 125.789200,129.991272 123.784081,133.687164 
	C122.238571,137.154770 120.693069,140.622375 118.846146,144.655182 
	C118.539299,145.402008 118.232445,146.148819 117.145569,147.014206 
	C116.451172,147.282562 115.430199,147.346680 115.114304,147.851746 
	C112.701401,151.709778 110.320923,155.596298 108.137115,159.587097 
	C105.932693,163.615570 103.965698,167.773956 101.382912,172.047470 
	C101.226540,172.357742 101.070168,172.668015 100.917397,172.908920 
	C100.917397,172.908920 100.847946,172.907440 100.251015,173.139587 
	C99.797005,174.044678 99.342995,174.949753 98.884155,175.912292 
	C98.884155,175.912292 98.939262,175.895340 98.396614,176.034485 
	C98.292534,176.356293 98.188461,176.678085 97.930504,177.408966 
	C97.930504,177.408966 97.869301,177.841721 97.287849,178.118118 
	C97.161797,178.740067 97.035751,179.362030 96.923676,179.915115 
	C96.923676,179.915115 96.854073,179.905457 96.266701,180.140579 
	C96.141502,180.753235 96.016304,181.365891 95.934563,181.922134 
	C95.934563,181.922134 95.867523,181.898132 95.297058,182.108505 
	C94.892426,182.751068 94.487801,183.393616 93.926743,184.430023 
	C93.926743,184.430023 93.859421,184.848404 93.281090,185.123856 
	C93.157532,185.744217 93.033966,186.364594 92.926979,186.916443 
	C92.926979,186.916443 92.857559,186.904190 92.283279,187.123886 
	C92.155441,187.706879 92.027603,188.289871 91.280464,189.177933 
	C90.253067,191.119186 89.225670,193.060440 88.068230,195.728699 
	C84.089386,202.589462 80.107117,209.448227 76.132622,216.311508 
	C71.753601,223.873322 66.831841,231.181229 63.133411,239.062851 
	C57.333420,251.423035 55.333130,264.519501 57.985245,278.161102 
	C60.256596,289.844177 64.709099,300.397186 73.133865,309.568695 
	C73.320099,309.854279 73.583694,309.999878 74.089302,310.519989 
	C74.392044,310.689728 74.694794,310.859467 75.004158,310.998566 
	C75.004158,310.998566 74.973312,311.007568 75.019615,311.729156 
	C76.838676,313.460846 78.611275,315.244629 80.484863,316.915192 
	C88.558266,324.113678 97.554924,329.475800 108.493095,331.034851 
	C111.679459,331.489014 114.827431,332.212494 118.923729,332.976654 
	C130.914902,332.935883 142.906067,332.895142 155.834595,333.020599 
	C181.482315,332.966827 207.130035,332.913025 233.751785,332.972992 
	C250.074234,332.980560 266.396729,333.010254 282.719025,332.963470 
	C284.459351,332.958496 286.198425,332.506592 288.775696,332.055115 
	C290.202148,331.988861 291.628571,331.922607 293.799286,331.735687 
	C300.994629,328.468292 308.726959,326.008606 315.223114,321.689575 
	C320.880798,317.927979 325.143127,312.067688 330.664215,307.037201 
	C331.131256,306.710480 331.598328,306.383759 332.001221,306.001190 
	C332.001221,306.001190 332.058136,306.064362 332.725525,305.848236 
	C334.176025,303.247467 335.626556,300.646729 337.006195,297.999512 
	C337.006195,297.999512 337.062866,298.062195 337.757812,297.813202 
	C338.801483,294.703918 339.845154,291.594604 340.984375,288.509338 
	C340.984375,288.509338 340.899719,288.459259 341.576721,287.962006 
	C344.817261,279.818787 345.750427,271.261749 344.870728,262.692688 
	C344.315491,257.284302 342.290558,252.026840 341.008636,245.949615 
	C340.113434,243.555084 339.516815,240.991577 338.273224,238.794205 
	C331.556854,226.926590 324.724762,215.123566 317.831757,203.357330 
	C315.740356,199.787384 313.327911,196.405518 310.993530,192.188095 
	C308.014954,187.106323 305.036377,182.024551 301.984375,176.224854 
	C300.674133,174.132141 299.363922,172.039413 297.977570,169.252884 
	C297.009369,167.813507 296.041168,166.374146 294.986359,164.219055 
	C293.677643,162.125549 292.368896,160.032043 290.986115,157.243164 
	C289.998291,155.795425 289.010437,154.347687 287.990204,152.159927 
	C286.264771,149.780457 284.539368,147.400986 282.948151,144.330536 
	C282.263214,143.454620 281.578278,142.578690 280.970673,141.142532 
	C280.653320,140.487381 280.335968,139.832245 280.587097,138.841721 
	C279.081421,136.537949 277.575745,134.234177 276.071655,132.002060 
	C276.071655,132.002060 276.095917,131.932526 276.063721,131.195343 
	C273.402313,126.770721 270.740936,122.346100 268.013763,117.987854 
	C268.013763,117.987854 268.100677,117.953476 268.064362,117.229202 
	C266.730377,115.128906 265.396423,113.028603 264.008270,110.997139 
	C264.008270,110.997139 264.081696,110.949272 263.979736,110.309418 
	C263.337585,109.517929 262.695465,108.726440 262.015198,108.003609 
	C262.015198,108.003609 262.076691,107.954544 262.032074,107.217598 
	C259.281525,102.682915 256.530975,98.148232 253.730728,93.281403 
	C253.730728,93.281403 253.408966,93.185188 253.145035,92.637581 
	C248.258057,85.962479 242.276230,80.553856 234.917145,76.235138 
	C234.654663,75.807594 234.392181,75.380051 234.118164,74.903381 
z"/>
<path fill="#24C86A" opacity="1.000000" stroke="none" 
	d="
M280.018616,139.177094 
	C280.335968,139.832245 280.653320,140.487381 280.643921,141.539368 
	C279.483337,142.841324 278.649475,143.746460 277.473419,144.731720 
	C275.775604,146.664017 274.240326,148.411774 273.093323,150.385223 
	C265.151215,164.049850 257.315338,177.776260 249.362381,191.434540 
	C248.586838,192.766449 247.249222,193.771072 245.806335,194.705841 
	C243.462189,194.326859 241.484497,194.037170 239.506210,194.033112 
	C221.010712,193.995178 202.515106,194.006210 183.955536,193.653046 
	C183.261444,191.538498 182.631348,189.773987 182.384048,188.175476 
	C183.077530,188.459106 183.387650,188.678101 183.698990,188.679901 
	C203.142776,188.792282 222.586670,188.908890 242.030594,188.917480 
	C242.989380,188.917908 244.335419,188.209396 244.846222,187.411636 
	C248.839874,181.174438 253.333633,175.134430 256.371857,168.442780 
	C259.460052,161.640976 262.547821,154.971909 266.993500,148.945663 
	C268.751404,146.562729 270.309052,144.001053 271.674927,141.373672 
	C272.307159,140.157547 272.888000,138.316010 272.413849,137.227875 
	C270.448883,132.718369 268.378571,128.197632 265.785309,124.030502 
	C259.697418,114.247780 253.287125,104.665688 247.368683,95.000183 
	C248.825195,94.652748 249.920349,94.307533 251.437668,93.911629 
	C252.376205,93.635689 252.892593,93.410439 253.408966,93.185188 
	C253.408966,93.185188 253.730728,93.281403 253.571136,93.800156 
	C256.299927,98.864120 259.188293,103.409332 262.076691,107.954544 
	C262.076691,107.954544 262.015198,108.003609 262.030884,108.320786 
	C262.724945,109.408394 263.403320,110.178833 264.081696,110.949272 
	C264.081696,110.949272 264.008270,110.997139 264.007263,111.349945 
	C265.371033,113.786324 266.735840,115.869904 268.100677,117.953476 
	C268.100677,117.953476 268.013763,117.987854 268.030182,118.341324 
	C268.960480,124.183174 271.549561,128.652908 276.095917,131.932526 
	C276.095917,131.932526 276.071655,132.002060 276.047089,132.346497 
	C277.354553,134.852997 278.686584,137.015045 280.018616,139.177094 
z"/>
<path fill="#FEF42E" opacity="1.000000" stroke="none" 
	d="
M277.815643,144.651596 
	C278.649475,143.746460 279.483337,142.841324 280.605286,141.819489 
	C281.578278,142.578690 282.263214,143.454620 282.594513,144.755310 
	C281.474731,147.759445 280.708588,150.338837 279.682922,153.084320 
	C278.634399,154.171097 277.845398,155.091751 277.025421,156.381287 
	C276.459259,158.126862 276.085419,159.595428 275.362549,160.865295 
	C270.869446,168.758347 266.287292,176.600616 261.755371,184.471649 
	C255.808182,194.800705 249.955811,205.185196 243.923508,215.464172 
	C237.342453,226.678268 230.602325,237.799011 223.592041,249.037155 
	C222.526215,250.430176 221.799896,251.746475 220.917206,253.366638 
	C219.497101,256.106903 218.233383,258.543274 216.707031,261.031555 
	C216.275528,261.720093 216.106659,262.356812 215.882156,263.294067 
	C215.217285,264.396454 214.608032,265.198212 213.672729,266.084473 
	C212.902222,267.115906 212.457764,268.062836 212.006958,269.004883 
	C212.000610,269.000000 212.010605,269.009521 211.717285,269.181885 
	C209.600235,271.919403 207.776489,274.484558 205.721725,276.777466 
	C205.908127,274.484802 205.884201,272.226837 206.821152,270.486084 
	C210.431549,263.778137 214.386002,257.256470 218.143707,250.626526 
	C223.862915,240.535721 229.412354,230.347092 235.239609,220.319534 
	C242.826782,207.263535 250.665558,194.353989 258.299774,181.324997 
	C263.586731,172.301971 268.802612,163.234207 273.855469,154.078903 
	C275.493042,151.111710 276.513092,147.803696 277.815643,144.651596 
z"/>
<path fill="#FCEC36" opacity="1.000000" stroke="none" 
	d="
M340.899719,288.459259 
	C340.899719,288.459259 340.984375,288.509338 340.618774,288.710938 
	C339.189728,291.962433 338.126312,295.012299 337.062866,298.062195 
	C337.062866,298.062195 337.006195,297.999512 336.686768,297.966400 
	C334.930939,300.643646 333.494537,303.354004 332.058136,306.064362 
	C332.058136,306.064362 332.001221,306.001190 331.700317,305.904297 
	C330.940277,306.249878 330.481171,306.692322 330.022034,307.134766 
	C325.143127,312.067688 320.880798,317.927979 315.223114,321.689575 
	C308.726959,326.008606 300.994629,328.468292 293.405731,331.468750 
	C292.986115,330.765411 292.960052,330.329010 293.128632,329.612823 
	C295.918304,324.332275 299.435974,320.692810 305.610413,320.811829 
	C306.198181,320.823151 307.030823,320.449860 307.354614,319.981750 
	C311.875061,313.446655 321.481079,311.879852 323.798584,303.127014 
	C324.023010,302.279449 325.557556,301.795654 326.454224,301.104431 
	C327.305908,300.447906 328.471191,299.910675 328.895203,299.030334 
	C334.779938,286.812897 339.222534,274.232361 339.118103,260.375519 
	C339.096863,257.555878 340.471313,254.725723 341.439331,252.207825 
	C342.146790,255.618271 343.143097,258.747772 342.988281,261.819305 
	C342.540070,270.711792 341.629089,279.580933 340.899719,288.459259 
z"/>
<path fill="#4E94EB" opacity="1.000000" stroke="none" 
	d="
M73.007614,309.120758 
	C64.709099,300.397186 60.256596,289.844177 57.985245,278.161102 
	C55.333130,264.519501 57.333420,251.423035 63.133411,239.062851 
	C66.831841,231.181229 71.753601,223.873322 76.132622,216.311508 
	C80.107117,209.448227 84.089386,202.589462 88.341476,195.364807 
	C88.614723,195.000900 89.029625,195.039322 89.265511,195.261932 
	C90.349388,195.571381 91.197388,195.658218 92.509262,195.784378 
	C104.959137,195.791962 116.945137,195.760223 129.401886,195.801132 
	C138.241272,195.909729 146.609940,195.945694 155.230072,196.018768 
	C155.648682,196.084000 155.815796,196.112106 155.981171,196.441757 
	C156.003067,197.144028 156.026688,197.544754 155.696991,197.966339 
	C154.870621,198.000839 154.397583,198.014465 153.469055,198.029724 
	C145.549805,197.736938 138.085495,197.189621 130.622421,197.205826 
	C118.652954,197.231827 106.678627,197.919281 94.719017,197.683792 
	C91.443909,197.619293 89.862625,198.406891 88.393845,200.957947 
	C83.837944,208.870895 79.225418,216.752640 74.529053,224.583054 
	C63.872478,242.351074 57.026382,260.859406 63.067169,282.331635 
	C66.414673,289.789093 69.711349,296.871521 72.800430,304.204224 
	C72.731094,306.009888 72.869354,307.565308 73.007614,309.120758 
z"/>
<path fill="#B7B7F3" opacity="1.000000" stroke="none" 
	d="
M232.777756,332.859222 
	C207.130035,332.913025 181.482315,332.966827 155.358551,332.743683 
	C154.882507,332.466766 154.839874,332.081207 155.210281,332.024689 
	C156.073364,331.914093 156.566040,331.860016 157.516327,331.849792 
	C162.945206,331.871552 167.916489,331.849457 173.361984,331.865540 
	C182.518631,331.904663 191.201080,331.905609 200.288605,331.927734 
	C202.034988,331.757080 203.376282,331.565247 204.883209,331.349762 
	C202.577896,325.777039 202.981201,325.157837 208.324982,325.010101 
	C208.820343,324.996429 209.316589,325.015625 209.811966,325.002350 
	C217.286880,324.802246 218.841110,322.625519 217.416565,315.445923 
	C216.694168,311.805237 216.807846,307.998657 216.832458,304.459839 
	C222.453598,313.742920 227.785797,322.833191 233.011856,332.149780 
	C232.905701,332.376038 232.777756,332.859222 232.777756,332.859222 
M228.504272,329.465057 
	C228.504272,329.465057 228.526169,329.516144 228.504272,329.465057 
z"/>
<path fill="#33C177" opacity="1.000000" stroke="none" 
	d="
M253.277008,92.911385 
	C252.892593,93.410439 252.376205,93.635689 251.269089,93.624878 
	C244.775635,88.255058 238.872925,83.121284 232.739197,77.737663 
	C231.004654,76.960716 229.501160,76.433624 227.802658,75.703949 
	C227.081848,75.326187 226.556015,75.151024 225.762970,74.741104 
	C215.358337,70.320221 205.006393,68.498260 193.917770,69.865868 
	C177.000534,71.952332 163.254425,79.511635 152.738403,92.641602 
	C148.197098,98.311737 144.809860,104.906181 140.691528,111.155663 
	C140.484695,111.230591 140.092773,111.430550 139.961548,111.112717 
	C139.547485,110.167885 139.264633,109.540901 138.981796,108.913910 
	C144.582443,94.426140 154.386429,83.672836 167.626938,75.653290 
	C179.912949,68.211868 193.200699,66.264183 207.888443,67.386543 
	C212.000473,68.435425 215.403961,69.131050 218.801086,69.856491 
	C221.892273,70.516594 224.976517,71.209099 228.063828,71.887321 
	C228.063828,71.887321 228.024338,71.991707 227.986664,72.344795 
	C228.658920,72.768692 229.368835,72.839508 230.078766,72.910316 
	C230.078766,72.910316 230.019714,72.974052 230.043579,73.339958 
	C230.733398,73.766144 231.399384,73.826424 232.065353,73.886703 
	C232.065353,73.886703 232.040649,73.990135 232.007843,74.358139 
	C232.673157,74.780830 233.371307,74.835533 234.069443,74.890236 
	C234.069443,74.890236 234.118164,74.903381 233.824921,75.104507 
	C233.970154,75.810234 234.408615,76.314842 234.847092,76.819450 
	C242.276230,80.553856 248.258057,85.962479 253.277008,92.911385 
z"/>
<path fill="#4E94EB" opacity="1.000000" stroke="none" 
	d="
M117.993011,332.812500 
	C114.827431,332.212494 111.679459,331.489014 108.493095,331.034851 
	C97.554924,329.475800 88.558266,324.113678 80.484863,316.915192 
	C78.611275,315.244629 76.838676,313.460846 75.364975,311.418152 
	C77.158348,311.414093 78.606346,311.721008 80.239655,312.148010 
	C80.657921,312.457336 80.846825,312.683472 81.042130,313.297913 
	C83.390739,315.694824 85.436150,318.175781 88.043327,319.688599 
	C92.506645,322.278473 97.184395,324.642822 102.028915,326.389618 
	C106.512848,328.006378 111.282845,329.109863 116.018227,329.678467 
	C121.963333,330.392303 128.000214,330.383759 134.001297,330.530457 
	C134.667892,330.546753 135.359467,329.541962 136.448074,329.011658 
	C140.895035,329.664856 144.933395,330.317139 148.974457,331.195953 
	C148.977158,331.422455 148.959824,331.875183 148.495880,331.922974 
	C144.892975,331.992859 141.752014,331.951294 138.615479,332.050049 
	C131.740128,332.266479 124.867027,332.554016 117.993011,332.812500 
z"/>
<path fill="#97D6F3" opacity="1.000000" stroke="none" 
	d="
M89.029625,195.039322 
	C89.029625,195.039322 88.614723,195.000900 88.406494,195.001282 
	C89.225670,193.060440 90.253067,191.119186 91.843353,188.872437 
	C92.556679,188.012680 92.707123,187.458435 92.857559,186.904190 
	C92.857559,186.904190 92.926979,186.916443 93.167526,186.756256 
	C93.558525,186.013519 93.708977,185.430954 93.859421,184.848404 
	C93.859421,184.848404 93.926743,184.430023 94.322662,184.182800 
	C95.101562,183.256424 95.484543,182.577286 95.867523,181.898132 
	C95.867523,181.898132 95.934563,181.922134 96.160706,181.766953 
	C96.542603,181.042999 96.698341,180.474228 96.854080,179.905457 
	C96.854073,179.905457 96.923676,179.915115 97.166779,179.755493 
	C97.563019,179.011139 97.716156,178.426437 97.869301,177.841721 
	C97.869301,177.841721 97.930504,177.408966 98.215134,177.080322 
	C98.708328,176.498108 98.854828,176.212662 98.939262,175.895340 
	C98.939262,175.895340 98.884155,175.912292 99.238098,175.864075 
	C100.010674,174.846390 100.429314,173.876923 100.847946,172.907440 
	C100.847946,172.907440 100.917397,172.908920 101.127274,172.804947 
	C101.522995,172.425797 101.708839,172.150620 101.894684,171.875427 
	C103.965698,167.773956 105.932693,163.615570 108.137115,159.587097 
	C110.320923,155.596298 112.701401,151.709778 115.114304,147.851746 
	C115.430199,147.346680 116.451172,147.282562 117.665161,147.174927 
	C118.422371,147.578171 118.659988,147.820679 118.878685,148.413239 
	C115.591652,154.658157 112.333237,160.558411 109.053070,166.446548 
	C104.669243,174.315842 100.268539,182.175751 95.639603,190.267685 
	C94.249191,191.953888 93.094261,193.412109 91.576431,194.902985 
	C90.485565,194.970230 89.757599,195.004776 89.029625,195.039322 
z"/>
<path fill="#FCEC36" opacity="1.000000" stroke="none" 
	d="
M311.062500,192.937500 
	C313.327911,196.405518 315.740356,199.787384 317.831757,203.357330 
	C324.724762,215.123566 331.556854,226.926590 338.273224,238.794205 
	C339.516815,240.991577 340.113434,243.555084 340.929382,246.718674 
	C340.802551,248.008224 340.754974,248.528702 340.371948,249.034103 
	C339.206604,248.310028 338.006287,247.763657 337.611298,246.863800 
	C335.940887,243.058456 334.893799,238.939362 332.922852,235.313278 
	C325.756134,222.128372 318.309601,209.095566 310.965088,195.636475 
	C310.944794,194.530258 310.927979,193.792999 310.949371,193.026611 
	C310.987549,192.997513 311.062500,192.937515 311.062500,192.937500 
z"/>
<path fill="#56CAC7" opacity="1.000000" stroke="none" 
	d="
M124.099960,133.018539 
	C125.789200,129.991272 127.478447,126.964012 129.678650,124.140793 
	C131.031250,124.526131 132.407990,125.117157 132.631546,124.825195 
	C134.819885,121.967148 136.815979,118.961891 138.892273,116.374519 
	C137.928833,120.180466 136.939850,123.610374 135.900665,127.384216 
	C134.909653,129.498383 133.968857,131.268600 132.801331,132.792847 
	C132.166580,131.320755 131.758560,130.094635 130.924423,127.588013 
	C129.574417,130.866852 128.734268,132.907349 127.697685,134.991974 
	C127.501251,135.036087 127.114784,135.149155 126.807343,135.073792 
	C125.699921,134.338470 124.899940,133.678497 124.099960,133.018539 
z"/>
<path fill="#FCF9AE" opacity="1.000000" stroke="none" 
	d="
M340.707428,249.049194 
	C340.754974,248.528702 340.802551,248.008224 340.887512,247.094696 
	C342.290558,252.026840 344.315491,257.284302 344.870728,262.692688 
	C345.750427,271.261749 344.817261,279.818787 341.238220,288.210632 
	C341.629089,279.580933 342.540070,270.711792 342.988281,261.819305 
	C343.143097,258.747772 342.146790,255.618271 341.412354,251.846985 
	C341.001434,250.468872 340.854431,249.759033 340.707428,249.049194 
z"/>
<path fill="#47C796" opacity="1.000000" stroke="none" 
	d="
M138.866730,115.998489 
	C136.815979,118.961891 134.819885,121.967148 132.631546,124.825195 
	C132.407990,125.117157 131.031250,124.526131 130.056778,124.078957 
	C129.923935,123.813072 129.973953,123.384895 130.350067,123.118484 
	C131.135086,122.224678 131.544006,121.597298 131.952911,120.969910 
	C134.077606,117.040359 136.202301,113.110817 138.654404,109.047592 
	C139.264633,109.540901 139.547485,110.167885 139.935226,111.433121 
	C139.649002,113.380409 139.257858,114.689453 138.866730,115.998489 
z"/>
<path fill="#FCF9AE" opacity="1.000000" stroke="none" 
	d="
M233.264771,332.916107 
	C232.777756,332.859222 232.905701,332.376038 233.469742,332.177185 
	C249.699951,331.903748 265.366119,331.829163 281.352722,331.784302 
	C282.097382,331.759308 282.521606,331.704620 283.226044,331.722626 
	C284.025391,331.602173 284.544525,331.409058 285.416687,331.216095 
	C286.472565,331.248566 287.175354,331.280823 287.844604,331.553375 
	C287.811005,331.793671 287.938080,332.261993 287.938080,332.261993 
	C286.198425,332.506592 284.459351,332.958496 282.719025,332.963470 
	C266.396729,333.010254 250.074234,332.980560 233.264771,332.916107 
z"/>
<path fill="#7ED0FD" opacity="1.000000" stroke="none" 
	d="
M118.897614,148.063187 
	C118.659988,147.820679 118.422371,147.578171 118.055176,147.115646 
	C118.232445,146.148819 118.539299,145.402008 119.354256,144.338608 
	C122.229286,141.687775 124.596207,139.353516 126.987366,137.441376 
	C127.003822,139.547775 126.996033,141.232056 126.965469,142.933670 
	C126.942696,142.951019 126.914017,143.000580 126.583687,143.095078 
	C125.811287,144.434280 125.369209,145.678970 124.717476,147.129852 
	C124.325844,147.888245 124.143867,148.440460 123.719109,149.203735 
	C122.312172,150.909882 121.148018,152.404984 119.998581,153.532288 
	C119.602196,151.472641 122.852325,148.980042 118.897614,148.063187 
z"/>
<path fill="#FEE520" opacity="1.000000" stroke="none" 
	d="
M279.942444,152.918213 
	C280.708588,150.338837 281.474731,147.759445 282.527405,145.100800 
	C284.539368,147.400986 286.264771,149.780457 287.983398,152.800110 
	C287.961670,153.620316 287.946777,153.800369 287.687103,153.836914 
	C285.425659,150.142990 283.885162,155.125061 281.801666,153.777542 
	C281.047272,153.344833 280.494843,153.131516 279.942444,152.918213 
z"/>
<path fill="#61CBD8" opacity="1.000000" stroke="none" 
	d="
M126.963127,137.019257 
	C124.596207,139.353516 122.229286,141.687775 119.504967,144.056000 
	C120.693069,140.622375 122.238571,137.154770 123.942017,133.352844 
	C124.899940,133.678497 125.699921,134.338470 126.782806,135.369293 
	C127.055519,136.137894 127.045326,136.535645 127.018028,136.955597 
	C127.000931,136.977829 126.963127,137.019257 126.963127,137.019257 
z"/>
<path fill="#A5F5FE" opacity="1.000000" stroke="none" 
	d="
M118.458366,332.894592 
	C124.867027,332.554016 131.740128,332.266479 138.615479,332.050049 
	C141.752014,331.951294 144.892975,331.992859 148.917343,331.981201 
	C151.481796,332.021454 153.160843,332.051331 154.839874,332.081238 
	C154.839874,332.081207 154.882507,332.466766 154.889862,332.660583 
	C142.906067,332.895142 130.914902,332.935883 118.458366,332.894592 
z"/>
<path fill="#FCEC36" opacity="1.000000" stroke="none" 
	d="
M302.057770,176.942780 
	C305.036377,182.024551 308.014954,187.106323 311.028015,192.562805 
	C311.062500,192.937515 310.987549,192.997513 310.644836,192.870728 
	C307.481537,187.539459 304.661011,182.334976 301.894958,177.083786 
	C301.949493,177.037079 302.057770,176.942780 302.057770,176.942780 
z"/>
<path fill="#33C177" opacity="1.000000" stroke="none" 
	d="
M276.079834,131.563934 
	C271.549561,128.652908 268.960480,124.183174 268.063080,118.308136 
	C270.740936,122.346100 273.402313,126.770721 276.079834,131.563934 
z"/>
<path fill="#A5F5FE" opacity="1.000000" stroke="none" 
	d="
M227.917511,71.542137 
	C224.976517,71.209099 221.892273,70.516594 218.801086,69.856491 
	C215.403961,69.131050 212.000473,68.435425 208.360077,67.437897 
	C215.195267,65.951653 221.437027,68.798607 227.917511,71.542137 
z"/>
<path fill="#33C177" opacity="1.000000" stroke="none" 
	d="
M262.054382,107.586075 
	C259.188293,103.409332 256.299927,98.864120 253.596008,93.966225 
	C256.530975,98.148232 259.281525,102.682915 262.054382,107.586075 
z"/>
<path fill="#3D8EFE" opacity="1.000000" stroke="none" 
	d="
M80.054352,312.027954 
	C78.606346,311.721008 77.158348,311.414093 75.341827,311.057373 
	C74.973312,311.007568 75.004158,310.998566 74.868515,310.798431 
	C74.463470,310.400696 74.194061,310.203094 73.924652,310.005493 
	C73.583694,309.999878 73.320099,309.854279 73.070740,309.344727 
	C72.869354,307.565308 72.731094,306.009888 73.087158,304.380463 
	C75.739113,306.880310 77.896736,309.454132 80.054352,312.027954 
z"/>
<path fill="#FCF9AE" opacity="1.000000" stroke="none" 
	d="
M332.391846,305.956299 
	C333.494537,303.354004 334.930939,300.643646 336.722229,297.989624 
	C335.626556,300.646729 334.176025,303.247467 332.391846,305.956299 
z"/>
<path fill="#FCF9AE" opacity="1.000000" stroke="none" 
	d="
M337.410339,297.937683 
	C338.126312,295.012299 339.189728,291.962433 340.570984,288.698914 
	C339.845154,291.594604 338.801483,294.703918 337.410339,297.937683 
z"/>
<path fill="#33C177" opacity="1.000000" stroke="none" 
	d="
M280.302856,139.009415 
	C278.686584,137.015045 277.354553,134.852997 276.046295,132.310669 
	C277.575745,134.234177 279.081421,136.537949 280.302856,139.009415 
z"/>
<path fill="#33C177" opacity="1.000000" stroke="none" 
	d="
M268.082520,117.591339 
	C266.735840,115.869904 265.371033,113.786324 264.034332,111.315521 
	C265.396423,113.028603 266.730377,115.128906 268.082520,117.591339 
z"/>
<path fill="#FCEC36" opacity="1.000000" stroke="none" 
	d="
M298.053680,169.946701 
	C299.363922,172.039413 300.674133,174.132141 302.021057,176.583817 
	C302.057770,176.942780 301.949493,177.037079 301.579285,176.963104 
	C300.096802,174.628036 298.984467,172.366943 297.917694,170.066238 
	C297.963226,170.026642 298.053680,169.946701 298.053680,169.946701 
z"/>
<path fill="#FCEC36" opacity="1.000000" stroke="none" 
	d="
M291.060181,157.938538 
	C292.368896,160.032043 293.677643,162.125549 294.973755,164.624756 
	C294.961151,165.030472 294.849365,165.126282 294.530640,165.008636 
	C293.111694,162.613129 292.011444,160.335266 290.948853,158.028168 
	C290.986511,157.998947 291.060181,157.938538 291.060181,157.938538 
z"/>
<path fill="#EEDA3B" opacity="1.000000" stroke="none" 
	d="
M288.356873,332.158569 
	C287.938080,332.261993 287.811005,331.793671 288.105347,331.259460 
	C289.911102,330.447693 291.422577,330.170166 292.934021,329.892639 
	C292.960052,330.329010 292.986115,330.765411 293.033600,331.529053 
	C291.628571,331.922607 290.202148,331.988861 288.356873,332.158569 
z"/>
<path fill="#FCEC36" opacity="1.000000" stroke="none" 
	d="
M287.931854,153.980423 
	C287.946777,153.800369 287.961670,153.620316 287.999603,153.170105 
	C289.010437,154.347687 289.998291,155.795425 291.023132,157.590851 
	C291.060181,157.938538 290.986511,157.998947 290.647095,157.873474 
	C289.515747,156.492142 288.723816,155.236282 287.931854,153.980423 
z"/>
<path fill="#FCEC36" opacity="1.000000" stroke="none" 
	d="
M295.017059,164.982620 
	C296.041168,166.374146 297.009369,167.813507 298.015625,169.599792 
	C298.053680,169.946701 297.963226,170.026642 297.597473,169.955139 
	C296.437622,168.297852 295.643494,166.712067 294.849365,165.126282 
	C294.849365,165.126282 294.961151,165.030472 295.017059,164.982620 
z"/>
<path fill="#A5F5FE" opacity="1.000000" stroke="none" 
	d="
M100.549484,173.023514 
	C100.429314,173.876923 100.010674,174.846390 99.240509,175.835358 
	C99.342995,174.949753 99.797005,174.044678 100.549484,173.023514 
z"/>
<path fill="#33C177" opacity="1.000000" stroke="none" 
	d="
M264.030701,110.629349 
	C263.403320,110.178833 262.724945,109.408394 262.049927,108.286453 
	C262.695465,108.726440 263.337585,109.517929 264.030701,110.629349 
z"/>
<path fill="#A5F5FE" opacity="1.000000" stroke="none" 
	d="
M95.582291,182.003326 
	C95.484543,182.577286 95.101562,183.256424 94.400879,183.985870 
	C94.487801,183.393616 94.892426,182.751068 95.582291,182.003326 
z"/>
<path fill="#56CAC7" opacity="1.000000" stroke="none" 
	d="
M131.672745,121.054016 
	C131.544006,121.597298 131.135086,122.224678 130.432922,122.919502 
	C130.557312,122.370667 130.974945,121.754395 131.672745,121.054016 
z"/>
<path fill="#A5F5FE" opacity="1.000000" stroke="none" 
	d="
M96.560394,180.023010 
	C96.698341,180.474228 96.542603,181.042999 96.138977,181.795166 
	C96.016304,181.365891 96.141502,180.753235 96.560394,180.023010 
z"/>
<path fill="#A5F5FE" opacity="1.000000" stroke="none" 
	d="
M92.570419,187.014038 
	C92.707123,187.458435 92.556679,188.012680 92.153000,188.719894 
	C92.027603,188.289871 92.155441,187.706879 92.570419,187.014038 
z"/>
<path fill="#A5F5FE" opacity="1.000000" stroke="none" 
	d="
M93.570259,184.986130 
	C93.708977,185.430954 93.558525,186.013519 93.159241,186.790512 
	C93.033966,186.364594 93.157532,185.744217 93.570259,184.986130 
z"/>
<path fill="#A5F5FE" opacity="1.000000" stroke="none" 
	d="
M229.981720,72.605728 
	C229.368835,72.839508 228.658920,72.768692 228.002014,72.293945 
	C228.664917,72.027046 229.274796,72.164093 229.981720,72.605728 
z"/>
<path fill="#A5F5FE" opacity="1.000000" stroke="none" 
	d="
M231.966278,73.584114 
	C231.399384,73.826424 230.733398,73.766144 230.050171,73.297012 
	C230.644333,73.019287 231.255768,73.150406 231.966278,73.584114 
z"/>
<path fill="#A5F5FE" opacity="1.000000" stroke="none" 
	d="
M233.971375,74.588669 
	C233.371307,74.835533 232.673157,74.780830 232.013397,74.307663 
	C232.658951,74.021835 233.266129,74.154472 233.971375,74.588669 
z"/>
<path fill="#A5F5FE" opacity="1.000000" stroke="none" 
	d="
M234.882111,76.527298 
	C234.408615,76.314842 233.970154,75.810234 233.830688,75.129066 
	C234.392181,75.380051 234.654663,75.807594 234.882111,76.527298 
z"/>
<path fill="#FCF9AE" opacity="1.000000" stroke="none" 
	d="
M330.343140,307.085999 
	C330.481171,306.692322 330.940277,306.249878 331.732391,305.932220 
	C331.598328,306.383759 331.131256,306.710480 330.343140,307.085999 
z"/>
<path fill="#A5F5FE" opacity="1.000000" stroke="none" 
	d="
M97.578575,177.979919 
	C97.716156,178.426437 97.563019,179.011139 97.159790,179.789917 
	C97.035751,179.362030 97.161797,178.740067 97.578575,177.979919 
z"/>
<path fill="#4E94EB" opacity="1.000000" stroke="none" 
	d="
M74.006973,310.262756 
	C74.194061,310.203094 74.463470,310.400696 74.865204,310.813751 
	C74.694794,310.859467 74.392044,310.689728 74.006973,310.262756 
z"/>
<path fill="#A5F5FE" opacity="1.000000" stroke="none" 
	d="
M98.667938,175.964905 
	C98.854828,176.212662 98.708328,176.498108 98.292068,176.875793 
	C98.188461,176.678085 98.292534,176.356293 98.667938,175.964905 
z"/>
<path fill="#A5F5FE" opacity="1.000000" stroke="none" 
	d="
M101.638794,171.961456 
	C101.708839,172.150620 101.522995,172.425797 101.125473,172.839630 
	C101.070168,172.668015 101.226540,172.357742 101.638794,171.961456 
z"/>
<path fill="#13C263" opacity="1.000000" stroke="none" 
	d="
M247.007324,95.002396 
	C253.287125,104.665688 259.697418,114.247780 265.785309,124.030502 
	C268.378571,128.197632 270.448883,132.718369 272.413849,137.227875 
	C272.888000,138.316010 272.307159,140.157547 271.674927,141.373672 
	C270.309052,144.001053 268.751404,146.562729 266.993500,148.945663 
	C262.547821,154.971909 259.460052,161.640976 256.371857,168.442780 
	C253.333633,175.134430 248.839874,181.174438 244.846222,187.411636 
	C244.335419,188.209396 242.989380,188.917908 242.030594,188.917480 
	C222.586670,188.908890 203.142776,188.792282 183.698990,188.679901 
	C183.387650,188.678101 183.077530,188.459106 182.090668,188.007782 
	C179.416260,185.954773 176.899292,184.572052 175.522049,182.449722 
	C172.099228,177.175262 168.663376,171.789688 166.218414,166.030289 
	C163.122360,158.737228 156.753937,152.837173 156.773102,144.199799 
	C156.774414,143.608002 156.148026,143.039627 155.935440,142.418640 
	C153.908356,136.497025 152.054916,130.510574 149.838989,124.661179 
	C148.678528,121.597908 148.305115,117.672356 143.993042,116.620117 
	C147.528290,109.908569 150.503372,103.209663 154.591873,97.278221 
	C160.581711,88.588379 168.721588,82.249687 179.284958,78.838409 
	C181.871948,78.120079 184.100540,77.473381 186.283356,76.697853 
	C189.556396,75.534988 192.797302,74.281715 196.464203,73.060516 
	C198.251083,73.055107 199.625656,73.056061 201.297668,73.289391 
	C204.730255,73.694984 207.865402,73.868210 211.414764,74.038803 
	C213.877228,74.366219 215.925461,74.696243 218.077805,75.362946 
	C228.594666,80.638817 238.968414,85.635826 246.580887,94.751335 
	C246.680466,94.870583 246.863327,94.920258 247.007324,95.002396 
M173.260223,104.212837 
	C174.336975,110.078339 169.419052,110.563805 165.989807,112.586479 
	C164.104126,113.698715 161.636856,115.386269 161.272064,117.187180 
	C160.537109,120.815605 160.123169,123.807549 154.835983,122.525398 
	C156.702820,129.382507 158.389023,135.587967 160.084930,141.790771 
	C160.304031,142.592117 160.681808,143.363541 160.803070,144.176147 
	C162.329071,154.400345 168.183243,162.357788 174.500580,170.013565 
	C175.394608,171.097015 177.283783,171.896088 178.721710,171.910828 
	C192.894089,172.055878 207.093475,172.515671 221.232727,171.819870 
	C229.514679,171.412338 236.555130,167.570694 240.880127,159.591095 
	C243.370285,154.996735 246.952805,150.994431 249.892105,146.934875 
	C249.892105,143.135254 250.093994,139.251648 249.814178,135.403061 
	C249.653809,133.197296 249.089310,130.843491 248.044678,128.914948 
	C245.584839,124.373619 242.851837,119.965508 240.002731,115.653214 
	C235.686630,109.120514 231.293106,102.630180 226.649750,96.330238 
	C225.768707,95.134842 222.995972,93.902908 222.091980,94.422043 
	C219.320023,96.013924 217.602234,95.145546 215.481598,93.427139 
	C214.414124,92.562119 212.751495,92.272797 211.307953,92.055519 
	C198.644485,90.149376 187.319366,94.411880 176.339661,99.944496 
	C175.028015,100.605431 174.230896,102.287491 173.260223,104.212837 
z"/>
<path fill="#EEDA3B" opacity="1.000000" stroke="none" 
	d="
M281.032288,331.754608 
	C265.366119,331.829163 249.699951,331.903748 233.575897,331.950928 
	C227.785797,322.833191 222.453598,313.742920 216.843979,304.380157 
	C216.566559,304.107697 216.414124,304.036438 216.408142,303.653870 
	C215.314560,301.654144 214.226944,300.036926 213.161148,298.088898 
	C212.159149,296.058838 211.135345,294.359619 210.060135,292.324402 
	C208.038681,288.781769 206.068634,285.575165 203.984314,282.116821 
	C203.391144,281.616638 202.912231,281.368195 202.371429,280.796326 
	C201.826202,278.297211 201.342865,276.121582 201.016235,273.609192 
	C204.548584,267.594696 207.967926,261.942352 211.288742,256.232758 
	C215.428909,249.114380 219.476562,241.942276 223.584412,234.805008 
	C230.712341,222.420456 237.855804,210.044846 245.268387,197.545898 
	C245.775223,196.673813 246.006439,195.921310 246.267639,195.096008 
	C246.297638,195.023209 246.172501,194.927612 246.172501,194.927612 
	C247.249222,193.771072 248.586838,192.766449 249.362381,191.434540 
	C257.315338,177.776260 265.151215,164.049850 273.093323,150.385223 
	C274.240326,148.411774 275.775604,146.664017 277.473419,144.731720 
	C276.513092,147.803696 275.493042,151.111710 273.855469,154.078903 
	C268.802612,163.234207 263.586731,172.301971 258.299774,181.324997 
	C250.665558,194.353989 242.826782,207.263535 235.239609,220.319534 
	C229.412354,230.347092 223.862915,240.535721 218.143707,250.626526 
	C214.386002,257.256470 210.431549,263.778137 206.821152,270.486084 
	C205.884201,272.226837 205.908127,274.484802 205.741333,277.141785 
	C211.015076,287.254425 215.969086,296.767944 221.083420,306.194458 
	C225.096008,313.590240 229.190338,320.948761 233.532974,328.152222 
	C234.352188,329.511078 236.514740,330.868195 238.050186,330.860046 
	C250.973831,330.791779 263.895111,330.352600 276.819214,330.190765 
	C278.216858,330.173218 279.627625,331.207947 281.032288,331.754608 
z"/>
<path fill="#1DC174" opacity="1.000000" stroke="none" 
	d="
M143.930695,116.975891 
	C148.305115,117.672356 148.678528,121.597908 149.838989,124.661179 
	C152.054916,130.510574 153.908356,136.497025 155.935440,142.418640 
	C156.148026,143.039627 156.774414,143.608002 156.773102,144.199799 
	C156.753937,152.837173 163.122360,158.737228 166.218414,166.030289 
	C168.663376,171.789688 172.099228,177.175262 175.522049,182.449722 
	C176.899292,184.572052 179.416260,185.954773 181.707886,187.841797 
	C182.631348,189.773987 183.261444,191.538498 183.631180,193.660095 
	C182.571548,194.273178 181.772263,194.529160 180.579941,194.837860 
	C179.134766,194.830154 178.082626,194.769714 177.088287,194.389465 
	C176.656036,192.334183 176.479614,190.415131 175.597839,188.909012 
	C174.454483,186.956070 172.372391,185.525543 171.349792,183.533661 
	C166.341309,173.777924 161.158936,164.080597 156.792404,154.034744 
	C152.378906,143.880783 148.932846,133.309326 144.829102,123.013969 
	C144.311691,121.715889 142.373444,120.984146 141.088821,119.683762 
	C141.094070,118.970970 141.103989,118.564438 141.412018,118.082382 
	C142.450317,117.663208 143.190506,117.319550 143.930695,116.975891 
z"/>
<path fill="#26D375" opacity="1.000000" stroke="none" 
	d="
M247.368683,95.000183 
	C246.863327,94.920258 246.680466,94.870583 246.580887,94.751335 
	C238.968414,85.635826 228.594666,80.638817 218.404312,75.389404 
	C221.094543,75.044739 223.562378,75.010300 226.030197,74.975861 
	C226.556015,75.151024 227.081848,75.326187 227.899124,76.065338 
	C229.783798,77.082054 231.376999,77.534782 232.970215,77.987518 
	C238.872925,83.121284 244.775635,88.255058 250.846924,93.675575 
	C249.920349,94.307533 248.825195,94.652748 247.368683,95.000183 
z"/>
<path fill="#33C177" opacity="1.000000" stroke="none" 
	d="
M180.972992,194.785156 
	C181.772263,194.529160 182.571548,194.273178 183.695190,194.010132 
	C202.515106,194.006210 221.010712,193.995178 239.506210,194.033112 
	C241.484497,194.037170 243.462189,194.326859 245.806335,194.705841 
	C246.172501,194.927612 246.297638,195.023209 245.778976,195.051163 
	C223.831207,194.981125 202.402100,194.883133 180.972992,194.785156 
z"/>
<path fill="#FFD20C" opacity="1.000000" stroke="none" 
	d="
M216.969666,260.979675 
	C218.233383,258.543274 219.497101,256.106903 221.233887,253.270325 
	C222.448486,251.566925 223.190018,250.263687 223.931549,248.960449 
	C230.602325,237.799011 237.342453,226.678268 243.923508,215.464172 
	C249.955811,205.185196 255.808182,194.800705 261.755371,184.471649 
	C266.287292,176.600616 270.869446,168.758347 275.362549,160.865295 
	C276.085419,159.595428 276.459259,158.126862 277.435272,156.377533 
	C279.249512,156.004074 280.622925,156.003265 282.154053,156.284775 
	C283.208282,158.044327 284.104736,159.521545 285.056091,161.354584 
	C287.080627,166.584686 290.264923,171.334579 290.779266,176.357880 
	C292.036804,188.639877 292.074341,201.047729 292.546936,213.407059 
	C292.577179,214.198990 292.065887,214.997345 291.913788,215.812714 
	C290.589020,222.912979 289.312836,230.022400 287.955994,237.116440 
	C287.747589,238.205978 287.424011,239.977692 286.776886,240.170700 
	C279.933838,242.211960 281.346436,248.283829 279.822540,253.138214 
	C278.388428,257.706543 278.130615,263.303894 272.044525,265.438293 
	C270.550079,265.962372 268.936768,269.319458 269.189209,271.120239 
	C270.487762,280.383423 263.433411,285.230927 259.822357,291.516418 
	C257.406311,290.818268 255.623077,289.880890 253.844238,289.889191 
	C251.263763,289.901184 248.695480,290.859222 246.106079,290.947754 
	C239.850662,291.161652 233.554596,290.752167 227.338181,291.305176 
	C224.161621,291.587738 222.186295,291.859375 221.830765,287.956879 
	C221.739105,286.950867 220.400223,285.999664 219.523132,285.136200 
	C217.628220,283.270691 215.707397,281.425598 213.705978,279.676514 
	C212.563751,278.678253 211.242081,277.885376 209.783203,276.760986 
	C210.380325,274.017853 211.195465,271.513672 212.010605,269.009521 
	C212.010605,269.009521 212.000610,269.000000 212.330872,268.916473 
	C213.107010,267.888641 213.552902,266.944336 213.998795,266.000000 
	C214.608032,265.198212 215.217285,264.396454 216.111420,263.107117 
	C216.587448,262.072968 216.778549,261.526306 216.969666,260.979675 
z"/>
<path fill="#FEE520" opacity="1.000000" stroke="none" 
	d="
M211.717285,269.181885 
	C211.195465,271.513672 210.380325,274.017853 209.838455,277.114899 
	C214.423523,285.462463 218.735321,293.217133 223.170837,301.233917 
	C223.866562,301.997192 224.438568,302.498322 225.012894,303.330200 
	C225.018326,304.101898 225.021454,304.542847 225.071411,305.338989 
	C226.768051,309.182343 227.748795,313.391541 232.997681,313.001831 
	C233.000000,313.000000 232.996338,313.004883 232.996368,313.421387 
	C233.224854,322.479156 235.784180,324.999390 244.338242,325.000397 
	C250.666580,325.001160 257.094879,325.690765 263.294373,324.796326 
	C269.161713,323.949860 274.971436,321.865723 280.460815,319.517822 
	C284.437775,317.816772 287.561920,313.629486 291.581696,312.636139 
	C297.643768,311.138153 302.517487,307.266449 304.841370,302.966858 
	C310.449524,292.590912 320.935089,285.173645 322.939453,272.679871 
	C324.417267,263.468475 326.361877,254.332504 327.904938,245.130447 
	C328.129791,243.789200 327.216583,242.278412 326.937897,240.825363 
	C326.663696,239.395767 326.677917,237.898926 326.300171,236.503448 
	C325.323669,232.896225 324.528320,229.186584 323.051514,225.782059 
	C321.298676,221.741104 318.817230,218.022934 316.819305,214.079880 
	C314.444916,209.393860 312.120331,204.671570 310.083130,199.834885 
	C309.670990,198.856308 310.637604,197.297012 310.968567,196.005432 
	C318.309601,209.095566 325.756134,222.128372 332.922852,235.313278 
	C334.893799,238.939362 335.940887,243.058456 337.611298,246.863800 
	C338.006287,247.763657 339.206604,248.310028 340.371948,249.034103 
	C340.854431,249.759033 341.001434,250.468872 341.175415,251.539551 
	C340.471313,254.725723 339.096863,257.555878 339.118103,260.375519 
	C339.222534,274.232361 334.779938,286.812897 328.895203,299.030334 
	C328.471191,299.910675 327.305908,300.447906 326.454224,301.104431 
	C325.557556,301.795654 324.023010,302.279449 323.798584,303.127014 
	C321.481079,311.879852 311.875061,313.446655 307.354614,319.981750 
	C307.030823,320.449860 306.198181,320.823151 305.610413,320.811829 
	C299.435974,320.692810 295.918304,324.332275 293.128632,329.612823 
	C291.422577,330.170166 289.911102,330.447693 288.138916,331.019165 
	C287.175354,331.280823 286.472565,331.248566 285.261780,331.005371 
	C284.151154,331.079620 283.548492,331.364777 282.945831,331.649933 
	C282.521606,331.704620 282.097382,331.759308 281.352722,331.784302 
	C279.627625,331.207947 278.216858,330.173218 276.819214,330.190765 
	C263.895111,330.352600 250.973831,330.791779 238.050186,330.860046 
	C236.514740,330.868195 234.352188,329.511078 233.532974,328.152222 
	C229.190338,320.948761 225.096008,313.590240 221.083420,306.194458 
	C215.969086,296.767944 211.015076,287.254425 205.972351,277.414062 
	C207.776489,274.484558 209.600235,271.919403 211.717285,269.181885 
z"/>
<path fill="#FED811" opacity="1.000000" stroke="none" 
	d="
M281.996338,156.002441 
	C280.622925,156.003265 279.249512,156.004074 277.466248,156.008667 
	C277.845398,155.091751 278.634399,154.171097 279.682922,153.084320 
	C280.494843,153.131516 281.047272,153.344833 281.800171,154.111816 
	C281.999207,155.111145 281.997772,155.556793 281.996338,156.002441 
z"/>
<path fill="#FEE520" opacity="1.000000" stroke="none" 
	d="
M223.592041,249.037155 
	C223.190018,250.263687 222.448486,251.566925 221.390259,252.966461 
	C221.799896,251.746475 222.526215,250.430176 223.592041,249.037155 
z"/>
<path fill="#FEE520" opacity="1.000000" stroke="none" 
	d="
M213.672760,266.084473 
	C213.552902,266.944336 213.107010,267.888641 212.337204,268.921356 
	C212.457764,268.062836 212.902222,267.115906 213.672760,266.084473 
z"/>
<path fill="#FEE520" opacity="1.000000" stroke="none" 
	d="
M216.707031,261.031555 
	C216.778549,261.526306 216.587448,262.072968 216.167053,262.806549 
	C216.106659,262.356812 216.275528,261.720093 216.707031,261.031555 
z"/>
<path fill="#000000" opacity="1.000000" stroke="none" 
	d="
M244.992767,197.665497 
	C237.855804,210.044846 230.712341,222.420456 223.584412,234.805008 
	C219.476562,241.942276 215.428909,249.114380 211.288742,256.232758 
	C207.967926,261.942352 204.548584,267.594696 200.725342,273.517242 
	C199.866348,273.140381 199.454941,272.518707 199.021301,271.536621 
	C197.455704,268.836700 195.912354,266.497253 194.228317,263.870239 
	C193.092178,262.028168 192.096725,260.473602 191.069122,258.612610 
	C190.734634,257.830170 190.432327,257.354187 190.103699,256.531586 
	C189.082748,254.760040 188.088104,253.335114 187.060379,251.604523 
	C186.722931,250.830627 186.418549,250.362411 186.080582,249.545685 
	C185.042389,247.766739 184.037781,246.336288 182.962311,244.674530 
	C182.702332,244.147308 182.432449,243.989868 182.039200,243.609100 
	C181.023712,241.475174 180.050827,239.703064 179.042618,237.953857 
	C179.007294,237.976730 179.090866,237.966904 179.067581,237.650284 
	C178.725861,236.866364 178.407440,236.399048 178.045898,235.947510 
	C178.002808,235.963272 178.081284,235.912689 178.069534,235.615753 
	C177.636917,234.720291 177.216049,234.121780 176.758179,233.396301 
	C176.721191,233.269318 176.465759,233.200577 176.301834,232.928574 
	C175.457504,231.408401 174.777084,230.160233 174.049438,228.552734 
	C172.024323,225.107986 170.046432,222.022552 168.034882,218.967957 
	C168.001221,218.998779 168.070099,218.935654 168.034576,218.568832 
	C164.688507,212.420685 161.377975,206.639374 157.982910,200.637863 
	C157.709442,200.136826 157.446487,199.980301 157.073059,199.633331 
	C156.707184,198.861832 156.377808,198.405106 156.031342,197.964493 
	C156.014252,197.980621 156.050323,197.945465 156.050323,197.945465 
	C156.026688,197.544754 156.003067,197.144028 156.316513,196.372574 
	C157.102829,195.941360 157.552078,195.880890 158.459137,195.895477 
	C162.944427,195.915878 166.971878,195.861206 171.461380,195.890320 
	C194.846222,195.980576 217.769165,195.957062 240.691483,196.065140 
	C242.127731,196.071915 243.559128,197.108185 244.992767,197.665497 
z"/>
<path fill="#7ED0FD" opacity="1.000000" stroke="none" 
	d="
M91.939323,194.870316 
	C93.094261,193.412109 94.249191,191.953888 96.004456,190.226608 
	C99.007568,187.373108 101.627220,184.954910 103.764328,182.166840 
	C107.314301,177.535553 110.554337,172.666702 114.196693,168.159027 
	C115.314056,169.852753 116.738144,171.221298 116.905098,172.729050 
	C117.628220,179.259537 121.002281,184.598389 125.749283,188.319077 
	C128.743774,190.666153 129.088287,192.736664 128.931137,195.728485 
	C116.945137,195.760223 104.959137,195.791962 92.484833,195.566589 
	C91.996536,195.309479 91.939323,194.870316 91.939323,194.870316 
z"/>
<path fill="#5DB3FF" opacity="1.000000" stroke="none" 
	d="
M63.016335,281.956635 
	C57.026382,260.859406 63.872478,242.351074 74.529053,224.583054 
	C79.225418,216.752640 83.837944,208.870895 88.393845,200.957947 
	C89.862625,198.406891 91.443909,197.619293 94.719017,197.683792 
	C106.678627,197.919281 118.652954,197.231827 130.622421,197.205826 
	C138.085495,197.189621 145.549805,197.736938 153.321594,198.307571 
	C152.415024,199.365524 151.200424,200.147263 149.519897,200.938843 
	C143.702759,200.952087 138.351547,200.955475 132.759247,200.744843 
	C131.346756,200.681046 130.175354,200.831268 128.535034,200.982132 
	C118.428726,200.981888 108.782120,201.230667 99.157768,200.875854 
	C94.267609,200.695557 91.131508,202.071182 89.590530,207.035004 
	C88.159538,209.404312 87.073685,211.696716 85.993759,213.994568 
	C85.999695,214.000000 85.985313,213.988556 85.657135,214.068451 
	C83.905258,216.450714 82.481552,218.753082 81.040108,221.373703 
	C80.996765,222.116150 80.971161,222.540359 80.626579,223.060181 
	C79.867203,224.099152 79.426811,225.042511 78.992599,225.992935 
	C78.998779,226.000000 78.981552,225.987442 78.656830,226.073380 
	C77.887581,227.105698 77.443047,228.052078 76.999260,228.999237 
	C77.000000,229.000000 76.997963,228.998566 76.666061,229.077316 
	C75.206818,231.769150 74.079468,234.382217 72.905594,237.320053 
	C72.227219,238.754791 71.595367,239.864777 70.657494,241.048401 
	C69.881981,242.413055 69.412491,243.704086 68.903458,245.307617 
	C68.540375,246.391479 68.216820,247.162796 67.555611,248.061310 
	C65.889046,252.020676 63.636997,255.805893 63.439159,259.695618 
	C63.110455,266.158386 64.165947,272.685303 64.460297,279.193268 
	C64.500885,280.090790 63.522808,281.034363 63.016335,281.956635 
z"/>
<path fill="#69C7ED" opacity="1.000000" stroke="none" 
	d="
M129.401886,195.801117 
	C129.088287,192.736664 128.743774,190.666153 125.749283,188.319077 
	C121.002281,184.598389 117.628220,179.259537 116.905098,172.729050 
	C116.738144,171.221298 115.314056,169.852753 114.352654,167.857880 
	C115.163063,165.189255 116.089279,163.082886 117.266403,160.868286 
	C118.000298,160.503418 118.483284,160.246826 119.187302,160.249313 
	C121.250656,162.775284 124.612305,165.031723 124.627975,167.311157 
	C124.663719,172.509888 126.014397,176.469482 129.651764,180.144501 
	C132.517838,183.040253 134.814941,186.524658 137.176880,189.879852 
	C137.987305,191.031082 138.228760,192.582840 138.807327,194.162308 
	C140.817276,194.392120 142.940186,194.634857 145.461487,194.891754 
	C148.197632,194.649750 150.535400,194.393585 153.078400,194.334961 
	C153.848633,195.015549 154.413620,195.498611 154.978592,195.981659 
	C146.609940,195.945694 138.241272,195.909729 129.401886,195.801117 
z"/>
<path fill="#4BC8B6" opacity="1.000000" stroke="none" 
	d="
M155.230072,196.018784 
	C154.413620,195.498611 153.848633,195.015549 153.105606,193.956757 
	C152.038467,192.099533 151.190613,190.787003 150.253036,189.542038 
	C146.599777,184.691147 142.115356,180.266815 139.424164,174.934784 
	C134.701157,165.577133 131.070129,155.668365 126.986008,145.616302 
	C126.964874,144.494980 126.939445,143.747772 126.914017,143.000580 
	C126.914017,143.000580 126.942696,142.951019 127.243195,142.812683 
	C128.343109,141.774155 129.142532,140.873962 130.251587,140.148987 
	C131.522675,141.816330 132.763809,143.198685 133.399597,144.818604 
	C137.145157,154.361771 138.320755,164.856659 145.011337,173.330872 
	C148.544785,177.806290 150.159363,184.009399 154.171494,187.820480 
	C156.908401,190.420227 158.920578,192.030945 158.001312,195.820419 
	C157.552078,195.880890 157.102829,195.941360 156.318268,196.071014 
	C155.815796,196.112106 155.648682,196.084000 155.230072,196.018784 
z"/>
<path fill="#4BA2FE" opacity="1.000000" stroke="none" 
	d="
M63.067169,282.331635 
	C63.522808,281.034363 64.500885,280.090790 64.460297,279.193268 
	C64.165947,272.685303 63.110455,266.158386 63.439159,259.695618 
	C63.636997,255.805893 65.889046,252.020676 67.586983,248.483887 
	C67.871048,249.937180 67.981232,251.150330 67.671463,252.244568 
	C63.798382,265.925934 65.944412,279.080566 71.033150,292.338593 
	C71.691803,293.784363 72.348557,294.886047 73.135590,296.190582 
	C73.470909,296.647919 73.719055,296.849335 74.064056,297.353271 
	C76.536217,301.756683 79.036369,305.759735 81.297371,309.893555 
	C81.702316,310.633972 81.118790,311.915009 80.991661,312.946442 
	C80.846825,312.683472 80.657921,312.457336 80.239655,312.148010 
	C77.896736,309.454132 75.739113,306.880310 73.294754,304.130249 
	C69.711349,296.871521 66.414673,289.789093 63.067169,282.331635 
z"/>
<path fill="#4998F7" opacity="1.000000" stroke="none" 
	d="
M149.985809,200.928986 
	C151.200424,200.147263 152.415024,199.365524 153.777100,198.305939 
	C154.397583,198.014465 154.870621,198.000839 155.696991,197.966339 
	C156.050323,197.945465 156.014252,197.980621 156.060852,198.262024 
	C156.441483,199.011642 156.775513,199.479874 157.109528,199.948090 
	C157.446487,199.980301 157.709442,200.136826 157.967819,201.035461 
	C160.755875,207.223190 163.447784,212.806671 166.248352,218.335114 
	C166.453064,218.739197 167.444458,218.744797 168.070099,218.935654 
	C168.070099,218.935654 168.001221,218.998779 168.026520,219.330536 
	C168.694946,221.445160 169.338089,223.228012 169.603210,225.004913 
	C168.088013,224.297592 166.477493,223.867294 165.894211,222.848724 
	C163.109970,217.986679 160.604568,212.964951 157.840637,207.726135 
	C156.788757,206.969589 155.896225,206.486938 155.001862,206.001862 
	C155.000015,205.999466 154.995514,205.995834 154.935547,205.649750 
	C153.588776,204.530533 152.301987,203.757401 150.892899,202.724930 
	C150.509003,201.953384 150.247406,201.441193 149.985809,200.928986 
z"/>
<path fill="#69C7ED" opacity="1.000000" stroke="none" 
	d="
M91.576431,194.902985 
	C91.939323,194.870316 91.996536,195.309479 92.020958,195.527267 
	C91.197388,195.658218 90.349388,195.571381 89.265511,195.261932 
	C89.757599,195.004776 90.485565,194.970230 91.576431,194.902985 
z"/>
<path fill="#6599FE" opacity="1.000000" stroke="none" 
	d="
M191.101288,258.919006 
	C192.096725,260.473602 193.092178,262.028168 194.141129,264.308228 
	C194.194626,269.684998 194.194626,274.336334 194.194626,277.921967 
	C191.230621,283.164398 188.478806,287.680786 186.080643,292.377747 
	C183.936584,296.577057 182.812698,301.428741 180.112549,305.182556 
	C175.793182,311.187439 170.507751,316.493286 165.730621,322.178589 
	C165.167038,322.849335 165.231140,324.047546 165.002136,325.000610 
	C165.000000,325.000000 165.001663,325.003845 164.604645,325.008423 
	C163.162399,325.766663 162.005127,326.406525 161.097702,327.300140 
	C159.663330,328.712677 158.396469,330.295319 157.058716,331.805969 
	C156.566040,331.860016 156.073364,331.914093 155.210281,332.024719 
	C153.160843,332.051331 151.481796,332.021454 149.381287,331.933380 
	C148.959824,331.875183 148.977158,331.422455 148.985046,330.954437 
	C148.992935,330.486420 149.005447,330.002441 149.390778,329.997986 
	C152.837677,327.633545 155.884506,325.254089 158.966568,322.921173 
	C160.751678,321.569946 163.194550,320.670959 164.297928,318.913391 
	C167.699448,313.495026 170.554596,307.736450 173.703949,302.156311 
	C178.837204,293.061005 184.278717,284.127075 189.038834,274.842407 
	C190.265274,272.450195 188.258102,267.793671 189.797455,266.296478 
	C192.867523,263.310547 190.481064,261.343445 190.285431,258.941895 
	C190.738815,258.939758 190.920044,258.929382 191.101288,258.919006 
z"/>
<path fill="#9AABFA" opacity="1.000000" stroke="none" 
	d="
M204.098602,282.368561 
	C206.068634,285.575165 208.038681,288.781769 210.029755,292.768616 
	C209.778381,296.006958 208.683960,298.728973 209.374023,300.878021 
	C212.580856,310.865112 205.823730,316.850922 200.807404,323.543518 
	C200.213501,324.335907 198.770660,324.469788 197.752563,324.972168 
	C196.555756,325.562775 195.393021,326.222473 194.215515,326.852173 
	C195.016800,327.791748 195.728333,328.832703 196.643799,329.643280 
	C197.623550,330.510834 198.795471,331.161316 199.883514,331.906555 
	C191.201080,331.905609 182.518631,331.904663 173.406189,331.664398 
	C172.976181,331.425079 173.028381,331.014252 173.463318,331.013336 
	C175.934235,331.004364 177.970200,330.996277 180.421417,330.993195 
	C182.641953,330.878143 184.447250,330.758118 185.594543,330.681824 
	C184.556686,328.410095 183.777725,326.705048 182.999390,325.000000 
	C183.000000,325.000000 183.000000,324.998779 183.444183,325.000702 
	C188.883942,325.731934 192.453262,324.096863 195.776474,319.941864 
	C203.315903,310.515411 209.032822,300.944855 204.655045,288.267029 
	C204.028687,286.453125 204.262756,284.342072 204.098602,282.368561 
z"/>
<path fill="#A8AEFB" opacity="1.000000" stroke="none" 
	d="
M200.288605,331.927734 
	C198.795471,331.161316 197.623550,330.510834 196.643799,329.643280 
	C195.728333,328.832703 195.016800,327.791748 194.215515,326.852173 
	C195.393021,326.222473 196.555756,325.562775 197.752563,324.972168 
	C198.770660,324.469788 200.213501,324.335907 200.807404,323.543518 
	C205.823730,316.850922 212.580856,310.865112 209.374023,300.878021 
	C208.683960,298.728973 209.778381,296.006958 210.081161,293.104614 
	C211.135345,294.359619 212.159149,296.058838 213.230301,298.474304 
	C214.323120,300.805817 215.368622,302.421143 216.414124,304.036438 
	C216.414124,304.036438 216.566559,304.107697 216.555054,304.187378 
	C216.807846,307.998657 216.694168,311.805237 217.416565,315.445923 
	C218.841110,322.625519 217.286880,324.802246 209.811966,325.002350 
	C209.316589,325.015625 208.820343,324.996429 208.324982,325.010101 
	C202.981201,325.157837 202.577896,325.777039 204.883209,331.349762 
	C203.376282,331.565247 202.034988,331.757080 200.288605,331.927734 
z"/>
<path fill="#769EFD" opacity="1.000000" stroke="none" 
	d="
M173.028381,331.014282 
	C173.028381,331.014252 172.976181,331.425079 172.931976,331.626221 
	C167.916489,331.849457 162.945206,331.871552 157.516327,331.849792 
	C158.396469,330.295319 159.663330,328.712677 161.097702,327.300140 
	C162.005127,326.406525 163.162399,325.766663 164.609009,325.408508 
	C164.897797,328.548553 166.084808,329.949280 168.959641,330.036072 
	C170.324478,330.077301 171.672653,330.670929 173.028381,331.014282 
z"/>
<path fill="#A8AEFB" opacity="1.000000" stroke="none" 
	d="
M228.515228,329.490601 
	C228.526169,329.516144 228.504272,329.465057 228.515228,329.490601 
z"/>
<path fill="#37E487" opacity="1.000000" stroke="none" 
	d="
M225.762970,74.741104 
	C223.562378,75.010300 221.094543,75.044739 218.300217,75.052727 
	C215.925461,74.696243 213.877228,74.366219 211.139221,73.786850 
	C207.299728,73.377357 204.149963,73.217186 201.000214,73.057014 
	C199.625656,73.056061 198.251083,73.055107 196.114182,73.079926 
	C189.348877,73.530159 183.276108,73.754852 178.906067,78.852394 
	C168.721588,82.249687 160.581711,88.588379 154.591873,97.278221 
	C150.503372,103.209663 147.528290,109.908569 143.993042,116.620110 
	C143.190506,117.319550 142.450317,117.663208 141.416046,117.691811 
	C141.047409,115.278084 140.972885,113.179405 140.898361,111.080734 
	C144.809860,104.906181 148.197098,98.311737 152.738403,92.641602 
	C163.254425,79.511635 177.000534,71.952332 193.917770,69.865868 
	C205.006393,68.498260 215.358337,70.320221 225.762970,74.741104 
z"/>
<path fill="#4BC8B6" opacity="1.000000" stroke="none" 
	d="
M140.691528,111.155663 
	C140.972885,113.179405 141.047409,115.278084 141.117920,117.767326 
	C141.103989,118.564438 141.094070,118.970970 140.832550,119.927254 
	C140.312363,121.606789 140.043777,122.736580 139.477081,123.965317 
	C138.102936,125.056267 137.026886,126.048279 135.950867,127.040283 
	C136.939850,123.610374 137.928833,120.180466 138.892273,116.374519 
	C139.257858,114.689453 139.649002,113.380409 140.066452,111.750961 
	C140.092773,111.430550 140.484695,111.230591 140.691528,111.155663 
z"/>
<path fill="#37E487" opacity="1.000000" stroke="none" 
	d="
M232.739197,77.737663 
	C231.376999,77.534782 229.783798,77.082054 228.094116,76.267929 
	C229.501160,76.433624 231.004654,76.960716 232.739197,77.737663 
z"/>
<path fill="#3D8EFE" opacity="1.000000" stroke="none" 
	d="
M158.000000,208.000000 
	C160.604568,212.964951 163.109970,217.986679 165.894211,222.848724 
	C166.477493,223.867294 168.088013,224.297592 169.608536,225.335846 
	C169.997559,226.114258 170.003235,226.555801 169.875107,227.232758 
	C171.162994,229.308990 172.584671,231.149796 174.011627,233.236053 
	C174.016922,233.481476 174.030441,233.972290 174.023407,234.377731 
	C176.011948,239.522247 178.007507,244.261337 180.018051,249.388245 
	C181.033615,252.936996 181.326981,255.824295 178.365234,258.375610 
	C177.432465,259.179108 177.426422,261.063385 177.006042,262.455963 
	C175.153320,268.593506 174.277924,275.270996 171.243698,280.754120 
	C165.565781,291.014496 158.640961,300.585205 152.218109,310.431885 
	C151.862015,310.977783 151.449234,311.649323 150.901245,311.882446 
	C145.069351,314.363129 143.992554,320.400238 140.579529,324.994080 
	C138.716583,325.111877 137.074432,324.835632 135.860886,325.431793 
	C133.766251,326.460785 133.273651,327.951263 136.039459,329.010712 
	C135.359467,329.541962 134.667892,330.546753 134.001297,330.530457 
	C128.000214,330.383759 121.963333,330.392303 116.018227,329.678467 
	C111.282845,329.109863 106.512848,328.006378 102.028915,326.389618 
	C97.184395,324.642822 92.506645,322.278473 88.043327,319.688599 
	C85.436150,318.175781 83.390739,315.694824 81.042130,313.297913 
	C81.118790,311.915009 81.702316,310.633972 81.297371,309.893555 
	C79.036369,305.759735 76.536217,301.756683 74.406120,297.414581 
	C78.736626,301.788757 83.351936,305.845398 87.830902,310.064056 
	C94.147141,316.013184 101.438507,319.852814 109.214996,322.179474 
	C115.681625,324.114227 123.302765,324.881165 129.404358,320.252502 
	C139.466507,312.619324 151.254471,306.622589 156.216599,293.756805 
	C156.611649,292.732513 157.709671,291.993652 158.417496,291.073273 
	C163.814957,284.054749 168.505966,276.782593 169.130341,267.506622 
	C169.360687,264.084351 170.138031,260.487122 171.580368,257.396454 
	C176.650223,246.532837 175.181488,239.354874 165.944260,231.485245 
	C164.661865,230.392700 163.794724,228.653976 163.107376,227.054520 
	C161.633575,223.625015 160.406448,220.089691 159.071594,216.600250 
	C157.719833,213.066650 156.359985,209.536133 155.003693,206.004272 
	C155.896225,206.486938 156.788757,206.969589 157.749878,207.770081 
	C157.818451,208.087921 157.802139,208.324371 157.802139,208.324371 
	C157.802139,208.324371 158.000000,208.000000 158.000000,208.000000 
z"/>
<path fill="#4998F7" opacity="1.000000" stroke="none" 
	d="
M136.448090,329.011658 
	C133.273651,327.951263 133.766251,326.460785 135.860886,325.431793 
	C137.074432,324.835632 138.716583,325.111877 141.017502,324.996887 
	C143.909912,324.998444 145.950684,324.998596 147.993561,325.370331 
	C148.332275,327.162079 148.668854,328.582245 149.005447,330.002441 
	C149.005447,330.002441 148.992935,330.486420 148.982346,330.727936 
	C144.933395,330.317139 140.895035,329.664856 136.448090,329.011658 
z"/>
<path fill="#A5F5FE" opacity="1.000000" stroke="none" 
	d="
M117.015503,160.976532 
	C116.089279,163.082886 115.163063,165.189255 114.080879,167.596756 
	C110.554337,172.666702 107.314301,177.535553 103.764328,182.166840 
	C101.627220,184.954910 99.007568,187.373108 96.239922,189.998611 
	C100.268539,182.175751 104.669243,174.315842 109.053070,166.446548 
	C112.333237,160.558411 115.591652,154.658157 118.878685,148.413239 
	C122.852325,148.980042 119.602196,151.472641 119.950218,153.789948 
	C119.870102,154.588577 119.853073,154.761765 119.495270,155.037628 
	C118.441505,157.085709 117.728500,159.031113 117.015503,160.976532 
z"/>
<path fill="#FEDE18" opacity="1.000000" stroke="none" 
	d="
M282.154053,156.284760 
	C281.997772,155.556793 281.999207,155.111145 282.002136,154.331223 
	C283.885162,155.125061 285.425659,150.142990 287.687103,153.836914 
	C288.723816,155.236282 289.515747,156.492142 290.609436,157.902710 
	C292.011444,160.335266 293.111694,162.613129 294.530640,165.008636 
	C295.643494,166.712067 296.437622,168.297852 297.551941,169.994751 
	C298.984467,172.366943 300.096802,174.628036 301.524780,177.009827 
	C304.661011,182.334976 307.481537,187.539459 310.606628,192.899841 
	C310.927979,193.792999 310.944794,194.530258 310.965088,195.636475 
	C310.637604,197.297012 309.670990,198.856308 310.083130,199.834885 
	C312.120331,204.671570 314.444916,209.393860 316.819305,214.079880 
	C318.817230,218.022934 321.298676,221.741104 323.051514,225.782059 
	C324.528320,229.186584 325.323669,232.896225 326.300171,236.503448 
	C326.677917,237.898926 326.663696,239.395767 326.937897,240.825363 
	C327.216583,242.278412 328.129791,243.789200 327.904938,245.130447 
	C326.361877,254.332504 324.417267,263.468475 322.939453,272.679871 
	C320.935089,285.173645 310.449524,292.590912 304.841370,302.966858 
	C302.517487,307.266449 297.643768,311.138153 291.581696,312.636139 
	C287.561920,313.629486 284.437775,317.816772 280.460815,319.517822 
	C274.971436,321.865723 269.161713,323.949860 263.294373,324.796326 
	C257.094879,325.690765 250.666580,325.001160 244.338242,325.000397 
	C235.784180,324.999390 233.224854,322.479156 233.402008,313.438538 
	C242.807159,314.719116 251.946228,317.442596 259.598389,309.406738 
	C260.009674,308.974792 260.860199,308.997101 261.435822,308.680054 
	C267.493286,305.343842 273.686676,302.221710 279.541504,298.559265 
	C285.465942,294.853241 290.255341,290.153168 292.372009,282.969574 
	C293.894135,277.803772 296.307465,272.839844 298.815125,268.042999 
	C301.111847,263.649658 304.178101,259.664551 306.659821,255.358078 
	C307.318604,254.214890 307.268341,252.543335 307.210663,251.127960 
	C306.974976,245.348358 306.508484,239.577164 306.331024,233.796600 
	C306.223480,230.292252 306.536499,226.776764 306.561218,223.265579 
	C306.569244,222.123596 306.045959,220.962463 306.133881,219.838898 
	C306.910889,209.909897 306.141876,200.383148 301.442139,191.221252 
	C297.152649,182.859161 293.897827,173.971558 289.849670,165.476318 
	C288.970978,163.632385 286.655121,162.473297 285.001221,160.998779 
	C284.104736,159.521545 283.208282,158.044327 282.154053,156.284760 
z"/>
<path fill="#36C499" opacity="1.000000" stroke="none" 
	d="
M135.900650,127.384216 
	C137.026886,126.048279 138.102936,125.056267 139.560974,124.378197 
	C144.937363,149.982758 156.457840,172.152206 172.320038,192.557037 
	C171.198853,192.703629 170.089523,192.848648 168.721375,192.777756 
	C162.760239,189.471161 158.034836,185.520340 154.949448,179.549057 
	C152.996155,175.768784 149.428833,172.779739 147.703217,168.934235 
	C144.860291,162.598785 143.064850,155.801682 140.535995,149.312927 
	C139.482437,146.609634 136.265488,144.040817 136.527420,141.688690 
	C136.997513,137.467255 134.556915,137.031036 132.042603,135.688339 
	C132.396118,134.595642 132.712082,133.817230 133.028046,133.038818 
	C133.968857,131.268600 134.909653,129.498383 135.900650,127.384216 
z"/>
<path fill="#61CBD8" opacity="1.000000" stroke="none" 
	d="
M132.801331,132.792847 
	C132.712082,133.817230 132.396118,134.595642 131.949051,135.998672 
	C131.192627,137.740112 130.567291,138.856934 129.941956,139.973755 
	C129.142532,140.873962 128.343109,141.774155 127.265968,142.795334 
	C126.996033,141.232056 127.003822,139.547775 126.987366,137.441376 
	C126.963127,137.019257 127.000931,136.977829 127.239838,136.775803 
	C127.617210,136.031799 127.755669,135.489822 127.894119,134.947845 
	C128.734268,132.907349 129.574417,130.866852 130.924423,127.588013 
	C131.758560,130.094635 132.166580,131.320755 132.801331,132.792847 
z"/>
<path fill="#7ED0FD" opacity="1.000000" stroke="none" 
	d="
M127.697685,134.991974 
	C127.755669,135.489822 127.617210,136.031799 127.256943,136.753571 
	C127.045326,136.535645 127.055519,136.137894 127.090248,135.444656 
	C127.114784,135.149155 127.501251,135.036087 127.697685,134.991974 
z"/>
<path fill="#EEDA3B" opacity="1.000000" stroke="none" 
	d="
M283.226044,331.722626 
	C283.548492,331.364777 284.151154,331.079620 284.908752,331.005188 
	C284.544525,331.409058 284.025391,331.602173 283.226044,331.722626 
z"/>
<path fill="#56CAC7" opacity="1.000000" stroke="none" 
	d="
M126.981720,145.990433 
	C131.070129,155.668365 134.701157,165.577133 139.424164,174.934784 
	C142.115356,180.266815 146.599777,184.691147 150.253036,189.542038 
	C151.190613,190.787003 152.038467,192.099533 152.900360,193.759216 
	C150.535400,194.393585 148.197632,194.649750 145.496826,194.562103 
	C144.932755,192.856705 145.136612,190.570084 144.467804,190.277374 
	C138.137421,187.506760 137.616486,180.851257 134.471848,175.982437 
	C129.120148,167.696442 125.445374,158.775879 123.961891,148.992661 
	C124.143867,148.440460 124.325844,147.888245 124.985962,147.039566 
	C125.969978,146.492203 126.475853,146.241318 126.981720,145.990433 
z"/>
<path fill="#61CBD8" opacity="1.000000" stroke="none" 
	d="
M123.719109,149.203735 
	C125.445374,158.775879 129.120148,167.696442 134.471848,175.982437 
	C137.616486,180.851257 138.137421,187.506760 144.467804,190.277374 
	C145.136612,190.570084 144.932755,192.856705 145.098419,194.547943 
	C142.940186,194.634857 140.817276,194.392120 138.807327,194.162308 
	C138.228760,192.582840 137.987305,191.031082 137.176880,189.879852 
	C134.814941,186.524658 132.517838,183.040253 129.651764,180.144501 
	C126.014397,176.469482 124.663719,172.509888 124.627975,167.311157 
	C124.612305,165.031723 121.250656,162.775284 119.254868,159.886139 
	C119.346283,157.820892 119.591164,156.377930 119.836044,154.934952 
	C119.853073,154.761765 119.870102,154.588577 119.935501,154.157715 
	C121.148018,152.404984 122.312172,150.909882 123.719109,149.203735 
z"/>
<path fill="#61CBD8" opacity="1.000000" stroke="none" 
	d="
M126.986015,145.616302 
	C126.475853,146.241318 125.969978,146.492203 125.195618,146.833374 
	C125.369209,145.678970 125.811287,144.434280 126.583679,143.095078 
	C126.939445,143.747772 126.964874,144.494980 126.986015,145.616302 
z"/>
<path fill="#0EBD5F" opacity="1.000000" stroke="none" 
	d="
M173.227753,103.854538 
	C174.230896,102.287491 175.028015,100.605431 176.339661,99.944496 
	C187.319366,94.411880 198.644485,90.149376 211.307953,92.055519 
	C212.751495,92.272797 214.414124,92.562119 215.481598,93.427139 
	C217.602234,95.145546 219.320023,96.013924 222.091980,94.422043 
	C222.995972,93.902908 225.768707,95.134842 226.649750,96.330238 
	C231.293106,102.630180 235.686630,109.120514 240.002731,115.653214 
	C242.851837,119.965508 245.584839,124.373619 248.044678,128.914948 
	C249.089310,130.843491 249.653809,133.197296 249.814178,135.403061 
	C250.093994,139.251648 249.892105,143.135254 249.892105,146.934875 
	C246.952805,150.994431 243.370285,154.996735 240.880127,159.591095 
	C236.555130,167.570694 229.514679,171.412338 221.232727,171.819870 
	C207.093475,172.515671 192.894089,172.055878 178.721710,171.910828 
	C177.283783,171.896088 175.394608,171.097015 174.500580,170.013565 
	C168.183243,162.357788 162.329071,154.400345 160.803070,144.176147 
	C160.681808,143.363541 160.304031,142.592117 160.084930,141.790771 
	C158.389023,135.587967 156.702820,129.382507 154.835983,122.525398 
	C160.123169,123.807549 160.537109,120.815605 161.272064,117.187180 
	C161.636856,115.386269 164.104126,113.698715 165.989807,112.586479 
	C169.419052,110.563805 174.336975,110.078339 173.227753,103.854538 
z"/>
<path fill="#26D375" opacity="1.000000" stroke="none" 
	d="
M179.284958,78.838409 
	C183.276108,73.754852 189.348877,73.530159 195.701859,73.086288 
	C192.797302,74.281715 189.556396,75.534988 186.283356,76.697853 
	C184.100540,77.473381 181.871948,78.120079 179.284958,78.838409 
z"/>
<path fill="#26D375" opacity="1.000000" stroke="none" 
	d="
M201.297668,73.289391 
	C204.149963,73.217186 207.299728,73.377357 210.725006,73.789474 
	C207.865402,73.868210 204.730255,73.694984 201.297668,73.289391 
z"/>
<path fill="#82A3FE" opacity="1.000000" stroke="none" 
	d="
M173.463318,331.013367 
	C171.672653,330.670929 170.324478,330.077301 168.959641,330.036072 
	C166.084808,329.949280 164.897797,328.548553 165.006042,325.403931 
	C165.001663,325.003845 165.000000,325.000000 165.404541,325.001373 
	C168.110229,324.252808 170.808517,324.023499 172.624771,322.637939 
	C175.805283,320.211609 178.182770,316.733765 181.360199,314.302094 
	C190.370743,307.406311 191.946976,296.087067 197.807907,287.339844 
	C198.348862,286.532501 197.835007,285.060059 197.933167,283.906860 
	C198.274185,279.901123 198.669113,275.899933 199.043549,271.897034 
	C199.454941,272.518707 199.866348,273.140381 200.568634,273.854004 
	C201.342865,276.121582 201.826202,278.297211 202.255829,281.299927 
	C202.306122,284.429199 202.718552,286.767975 202.451126,289.026245 
	C201.857590,294.038422 202.191727,299.744354 199.829712,303.826111 
	C196.307037,309.913727 190.747559,314.812775 186.139481,320.288910 
	C184.932220,321.723602 184.037979,323.421661 183.000000,324.998779 
	C183.000000,324.998779 183.000000,325.000000 182.584106,324.998779 
	C180.555603,325.439789 178.943008,325.882050 177.330399,326.324310 
	C178.113342,327.574707 178.906433,328.818939 179.671204,330.080353 
	C179.835373,330.351135 179.897202,330.683960 180.006180,330.988220 
	C177.970200,330.996277 175.934235,331.004364 173.463318,331.013367 
z"/>
<path fill="#8EA6FE" opacity="1.000000" stroke="none" 
	d="
M183.444183,325.000702 
	C184.037979,323.421661 184.932220,321.723602 186.139481,320.288910 
	C190.747559,314.812775 196.307037,309.913727 199.829712,303.826111 
	C202.191727,299.744354 201.857590,294.038422 202.451126,289.026245 
	C202.718552,286.767975 202.306122,284.429199 202.317734,281.623352 
	C202.912231,281.368195 203.391144,281.616638 203.984329,282.116821 
	C204.262756,284.342072 204.028687,286.453125 204.655045,288.267029 
	C209.032822,300.944855 203.315903,310.515411 195.776474,319.941864 
	C192.453262,324.096863 188.883942,325.731934 183.444183,325.000702 
z"/>
<path fill="#AFE5C6" opacity="1.000000" stroke="none" 
	d="
M245.268402,197.545898 
	C243.559128,197.108185 242.127731,196.071915 240.691483,196.065140 
	C217.769165,195.957062 194.846222,195.980576 171.739868,195.650940 
	C173.010635,195.157303 174.464951,194.986832 176.200378,194.823868 
	C176.664490,194.790680 176.847504,194.749969 177.030502,194.709274 
	C178.082626,194.769714 179.134766,194.830154 180.579941,194.837860 
	C202.402100,194.883133 223.831207,194.981125 245.748978,195.123962 
	C246.006439,195.921310 245.775223,196.673813 245.268402,197.545898 
z"/>
<path fill="#B7B7F3" opacity="1.000000" stroke="none" 
	d="
M216.408142,303.653870 
	C215.368622,302.421143 214.323120,300.805817 213.208481,298.805115 
	C214.226944,300.036926 215.314560,301.654144 216.408142,303.653870 
z"/>
<path fill="#24C27F" opacity="1.000000" stroke="none" 
	d="
M177.088287,194.389465 
	C176.847504,194.749969 176.664490,194.790680 175.900345,194.626465 
	C173.206207,193.945572 171.093201,193.469620 168.980209,192.993683 
	C170.089523,192.848648 171.198853,192.703629 172.320038,192.557037 
	C156.457840,172.152206 144.937363,149.982758 139.859100,124.279251 
	C140.043777,122.736580 140.312363,121.606789 140.837219,120.233505 
	C142.373444,120.984146 144.311691,121.715889 144.829102,123.013969 
	C148.932846,133.309326 152.378906,143.880783 156.792404,154.034744 
	C161.158936,164.080597 166.341309,173.777924 171.349792,183.533661 
	C172.372391,185.525543 174.454483,186.956070 175.597839,188.909012 
	C176.479614,190.415131 176.656036,192.334183 177.088287,194.389465 
z"/>
<path fill="#FED811" opacity="1.000000" stroke="none" 
	d="
M285.056091,161.354584 
	C286.655121,162.473297 288.970978,163.632385 289.849670,165.476318 
	C293.897827,173.971558 297.152649,182.859161 301.442139,191.221252 
	C306.141876,200.383148 306.910889,209.909897 306.133881,219.838898 
	C306.045959,220.962463 306.569244,222.123596 306.561218,223.265579 
	C306.536499,226.776764 306.223480,230.292252 306.331024,233.796600 
	C306.508484,239.577164 306.974976,245.348358 307.210663,251.127960 
	C307.268341,252.543335 307.318604,254.214890 306.659821,255.358078 
	C304.178101,259.664551 301.111847,263.649658 298.815125,268.042999 
	C296.307465,272.839844 293.894135,277.803772 292.372009,282.969574 
	C290.255341,290.153168 285.465942,294.853241 279.541504,298.559265 
	C273.686676,302.221710 267.493286,305.343842 261.435822,308.680054 
	C260.860199,308.997101 260.009674,308.974792 259.598389,309.406738 
	C251.946228,317.442596 242.807159,314.719116 233.401978,313.022003 
	C232.996338,313.004883 233.000000,313.000000 232.921021,312.674744 
	C230.236221,309.894226 227.630402,307.439026 225.024597,304.983795 
	C225.021454,304.542847 225.018326,304.101898 225.190460,303.115295 
	C224.592850,302.037048 223.819977,301.504425 223.047104,300.971802 
	C218.735321,293.217133 214.423523,285.462463 210.056473,277.353882 
	C211.242081,277.885376 212.563751,278.678253 213.705978,279.676514 
	C215.707397,281.425598 217.628220,283.270691 219.523132,285.136200 
	C220.400223,285.999664 221.739105,286.950867 221.830765,287.956879 
	C222.186295,291.859375 224.161621,291.587738 227.338181,291.305176 
	C233.554596,290.752167 239.850662,291.161652 246.106079,290.947754 
	C248.695480,290.859222 251.263763,289.901184 253.844238,289.889191 
	C255.623077,289.880890 257.406311,290.818268 259.822357,291.516418 
	C263.433411,285.230927 270.487762,280.383423 269.189209,271.120239 
	C268.936768,269.319458 270.550079,265.962372 272.044525,265.438293 
	C278.130615,263.303894 278.388428,257.706543 279.822540,253.138214 
	C281.346436,248.283829 279.933838,242.211960 286.776886,240.170700 
	C287.424011,239.977692 287.747589,238.205978 287.955994,237.116440 
	C289.312836,230.022400 290.589020,222.912979 291.913788,215.812714 
	C292.065887,214.997345 292.577179,214.198990 292.546936,213.407059 
	C292.074341,201.047729 292.036804,188.639877 290.779266,176.357880 
	C290.264923,171.334579 287.080627,166.584686 285.056091,161.354584 
z"/>
<path fill="#FEDE18" opacity="1.000000" stroke="none" 
	d="
M225.071426,305.338989 
	C227.630402,307.439026 230.236221,309.894226 232.918686,312.676575 
	C227.748795,313.391541 226.768051,309.182343 225.071426,305.338989 
z"/>
<path fill="#FEDE18" opacity="1.000000" stroke="none" 
	d="
M223.170837,301.233917 
	C223.819977,301.504425 224.592850,302.037048 225.188156,302.784576 
	C224.438568,302.498322 223.866562,301.997192 223.170837,301.233917 
z"/>
<path fill="#769EFD" opacity="1.000000" stroke="none" 
	d="
M199.021301,271.536621 
	C198.669113,275.899933 198.274185,279.901123 197.933167,283.906860 
	C197.835007,285.060059 198.348862,286.532501 197.807907,287.339844 
	C191.946976,296.087067 190.370743,307.406311 181.360199,314.302094 
	C178.182770,316.733765 175.805283,320.211609 172.624771,322.637939 
	C170.808517,324.023499 168.110229,324.252808 165.406677,325.001984 
	C165.231140,324.047546 165.167038,322.849335 165.730621,322.178589 
	C170.507751,316.493286 175.793182,311.187439 180.112549,305.182556 
	C182.812698,301.428741 183.936584,296.577057 186.080643,292.377747 
	C188.478806,287.680786 191.230621,283.164398 194.194626,277.921967 
	C194.194626,274.336334 194.194626,269.684998 194.281815,264.595734 
	C195.912354,266.497253 197.455704,268.836700 199.021301,271.536621 
z"/>
<path fill="#40C6A7" opacity="1.000000" stroke="none" 
	d="
M168.721375,192.777740 
	C171.093201,193.469620 173.206207,193.945572 175.619232,194.618942 
	C174.464951,194.986832 173.010635,195.157303 171.277832,195.567154 
	C166.971878,195.861206 162.944427,195.915878 158.459137,195.895477 
	C158.920578,192.030945 156.908401,190.420227 154.171494,187.820480 
	C150.159363,184.009399 148.544785,177.806290 145.011337,173.330872 
	C138.320755,164.856659 137.145157,154.361771 133.399597,144.818604 
	C132.763809,143.198685 131.522675,141.816330 130.251587,140.148987 
	C130.567291,138.856934 131.192627,137.740112 131.911499,136.312958 
	C134.556915,137.031036 136.997513,137.467255 136.527420,141.688690 
	C136.265488,144.040817 139.482437,146.609634 140.535995,149.312927 
	C143.064850,155.801682 144.860291,162.598785 147.703217,168.934235 
	C149.428833,172.779739 152.996155,175.768784 154.949448,179.549057 
	C158.034836,185.520340 162.760239,189.471161 168.721375,192.777740 
M163.505920,193.464722 
	C163.505920,193.464722 163.527832,193.514954 163.505920,193.464722 
z"/>
<path fill="#4998F7" opacity="1.000000" stroke="none" 
	d="
M180.003052,249.000412 
	C178.007507,244.261337 176.011948,239.522247 174.446625,234.309509 
	C175.406479,233.624084 175.936127,233.412338 176.465759,233.200577 
	C176.465759,233.200577 176.721191,233.269318 176.621857,233.712891 
	C177.042114,234.741867 177.561707,235.327271 178.081284,235.912689 
	C178.081284,235.912689 178.002808,235.963272 178.064484,236.245728 
	C178.447708,237.007751 178.769287,237.487335 179.090866,237.966904 
	C179.090866,237.966904 179.007294,237.976730 179.031921,238.334015 
	C180.064972,240.451157 181.073395,242.211029 182.081802,243.970917 
	C182.432449,243.989868 182.702332,244.147308 182.950500,245.061615 
	C183.007675,246.454376 183.005783,247.228745 182.713104,248.133926 
	C181.615906,248.509979 180.809479,248.755203 180.003052,249.000412 
z"/>
<path fill="#4E94EB" opacity="1.000000" stroke="none" 
	d="
M168.034576,218.568832 
	C167.444458,218.744797 166.453064,218.739197 166.248352,218.335114 
	C163.447784,212.806671 160.755875,207.223190 158.052338,201.255646 
	C161.377975,206.639374 164.688507,212.420685 168.034576,218.568832 
z"/>
<path fill="#4E94EB" opacity="1.000000" stroke="none" 
	d="
M170.008911,226.997345 
	C170.003235,226.555801 169.997559,226.114258 169.986572,225.341797 
	C169.338089,223.228012 168.694946,221.445160 168.060181,219.299713 
	C170.046432,222.022552 172.024323,225.107986 173.981735,228.613068 
	C173.961258,229.032745 173.825714,229.153305 173.533722,229.030518 
	C172.164124,228.270935 171.086502,227.634140 170.008911,226.997345 
z"/>
<path fill="#4E94EB" opacity="1.000000" stroke="none" 
	d="
M187.093460,251.910187 
	C188.088104,253.335114 189.082748,254.760040 190.029083,256.601196 
	C189.980759,257.017456 189.831879,257.157135 189.542267,257.059204 
	C188.502518,256.634155 187.752380,256.307037 186.997681,255.655930 
	C186.984192,254.899857 186.975235,254.467743 186.963242,253.724396 
	C186.908600,253.003326 186.856995,252.593506 186.877487,252.115387 
	C186.949585,252.047104 187.093460,251.910187 187.093460,251.910187 
z"/>
<path fill="#4E94EB" opacity="1.000000" stroke="none" 
	d="
M182.039200,243.609100 
	C181.073395,242.211029 180.064972,240.451157 179.067245,238.311127 
	C180.050827,239.703064 181.023712,241.475174 182.039200,243.609100 
z"/>
<path fill="#4E94EB" opacity="1.000000" stroke="none" 
	d="
M183.003891,248.003098 
	C183.005783,247.228745 183.007675,246.454376 183.021378,245.292938 
	C184.037781,246.336288 185.042389,247.766739 185.998810,249.621063 
	C185.950607,250.044952 185.786774,250.195419 185.515167,250.076614 
	C184.496994,249.306244 183.750443,248.654678 183.003891,248.003098 
z"/>
<path fill="#4E94EB" opacity="1.000000" stroke="none" 
	d="
M176.301834,232.928574 
	C175.936127,233.412338 175.406479,233.624084 174.453644,233.904053 
	C174.030441,233.972290 174.016922,233.481476 174.010071,232.850647 
	C173.944046,231.197632 173.884872,230.175476 173.825714,229.153305 
	C173.825714,229.153305 173.961258,229.032745 174.028961,228.972412 
	C174.777084,230.160233 175.457504,231.408401 176.301834,232.928574 
z"/>
<path fill="#4E94EB" opacity="1.000000" stroke="none" 
	d="
M178.069534,235.615753 
	C177.561707,235.327271 177.042114,234.741867 176.658844,233.839874 
	C177.216049,234.121780 177.636917,234.720291 178.069534,235.615753 
z"/>
<path fill="#4E94EB" opacity="1.000000" stroke="none" 
	d="
M179.067581,237.650284 
	C178.769287,237.487335 178.447708,237.007751 178.107574,236.229950 
	C178.407440,236.399048 178.725861,236.866364 179.067581,237.650284 
z"/>
<path fill="#4E94EB" opacity="1.000000" stroke="none" 
	d="
M186.032379,249.969574 
	C186.418549,250.362411 186.722931,250.830627 187.060379,251.604523 
	C187.093460,251.910187 186.949585,252.047104 186.674377,252.055466 
	C186.399185,252.063828 185.979721,251.993973 185.964920,251.691833 
	C185.895660,250.991592 185.841217,250.593506 185.786774,250.195419 
	C185.786774,250.195419 185.950607,250.044952 186.032379,249.969574 
z"/>
<path fill="#4E94EB" opacity="1.000000" stroke="none" 
	d="
M157.073059,199.633331 
	C156.775513,199.479874 156.441483,199.011642 156.077942,198.245895 
	C156.377808,198.405106 156.707184,198.861832 157.073059,199.633331 
z"/>
<path fill="#4E94EB" opacity="1.000000" stroke="none" 
	d="
M191.069122,258.612610 
	C190.920044,258.929382 190.738815,258.939758 190.272491,258.644653 
	C189.935547,257.945190 189.883713,257.551147 189.831879,257.157135 
	C189.831879,257.157135 189.980759,257.017456 190.055389,256.947815 
	C190.432327,257.354187 190.734634,257.830170 191.069122,258.612610 
z"/>
<path fill="#368CFE" opacity="1.000000" stroke="none" 
	d="
M155.001862,206.001862 
	C156.359985,209.536133 157.719833,213.066650 159.071594,216.600250 
	C160.406448,220.089691 161.633575,223.625015 163.107376,227.054520 
	C163.794724,228.653976 164.661865,230.392700 165.944260,231.485245 
	C175.181488,239.354874 176.650223,246.532837 171.580368,257.396454 
	C170.138031,260.487122 169.360687,264.084351 169.130341,267.506622 
	C168.505966,276.782593 163.814957,284.054749 158.417496,291.073273 
	C157.709671,291.993652 156.611649,292.732513 156.216599,293.756805 
	C151.254471,306.622589 139.466507,312.619324 129.404358,320.252502 
	C123.302765,324.881165 115.681625,324.114227 109.214996,322.179474 
	C101.438507,319.852814 94.147141,316.013184 87.830902,310.064056 
	C83.351936,305.845398 78.736626,301.788757 74.352379,297.058899 
	C73.719055,296.849335 73.470909,296.647919 73.131943,295.826172 
	C72.342430,294.170837 71.686844,293.082672 71.031250,291.994537 
	C65.944412,279.080566 63.798382,265.925934 67.671463,252.244568 
	C67.981232,251.150330 67.871048,249.937180 67.924637,248.356720 
	C68.216820,247.162796 68.540375,246.391479 69.160080,245.099686 
	C69.958656,243.377731 70.461082,242.176254 70.963516,240.974762 
	C71.595367,239.864777 72.227219,238.754791 73.167618,237.101166 
	C74.650093,234.037888 75.824028,231.518219 76.997963,228.998566 
	C76.997963,228.998566 77.000000,229.000000 77.277557,228.844040 
	C78.030602,227.787872 78.506073,226.887650 78.981552,225.987442 
	C78.981552,225.987442 78.998779,226.000000 79.272766,225.839294 
	C80.013023,224.773926 80.479294,223.869247 80.945557,222.964569 
	C80.971161,222.540359 80.996765,222.116150 81.380188,221.299500 
	C83.153778,218.600906 84.569542,216.294724 85.985313,213.988556 
	C85.985313,213.988556 85.999695,214.000000 86.287933,213.821655 
	C87.695992,211.414902 88.815819,209.186493 89.935654,206.958084 
	C91.131508,202.071182 94.267609,200.695557 99.157768,200.875854 
	C108.782120,201.230667 118.428726,200.981888 128.769974,201.209930 
	C130.649323,201.277649 131.824829,201.118256 133.000336,200.958862 
	C138.351547,200.955475 143.702759,200.952087 149.519897,200.938843 
	C150.247406,201.441193 150.509003,201.953384 150.963776,203.052887 
	C152.436462,204.425415 153.715988,205.210632 154.995514,205.995834 
	C154.995514,205.995834 155.000015,205.999466 155.001862,206.001862 
M150.976212,229.474213 
	C150.260544,228.020203 149.391327,226.620224 148.857086,225.102371 
	C147.013336,219.863983 143.208618,217.020157 137.726242,217.004333 
	C131.569870,216.986572 125.411507,216.917160 119.258133,217.054855 
	C117.496750,217.094284 115.729042,217.699249 114.000526,218.176361 
	C110.773552,219.067108 107.617722,220.583191 104.349693,220.858459 
	C100.790024,221.158279 98.360298,222.207367 96.952660,225.571991 
	C94.151726,232.266983 88.932640,237.957886 88.730568,245.758591 
	C88.705116,246.741150 87.303391,247.615280 86.974777,248.674713 
	C85.028053,254.950760 79.361359,260.159760 81.096573,267.439758 
	C81.835434,270.539612 84.619469,273.400757 84.625664,276.374237 
	C84.638237,282.408142 86.080444,287.810852 89.018509,292.877655 
	C92.147675,298.274048 94.120544,304.726715 102.711960,304.289215 
	C106.317894,304.105560 109.981331,306.902344 113.753304,307.731506 
	C120.946556,309.312805 128.093323,310.542419 135.439758,307.470612 
	C142.904739,304.349213 146.162018,297.430634 151.023392,291.939240 
	C154.960693,287.491730 159.525650,283.443146 160.470901,277.065125 
	C161.247818,271.822968 162.957397,266.565887 162.761337,261.371735 
	C162.521317,255.012619 161.425858,248.473083 159.373550,242.464737 
	C157.829575,237.944656 154.195221,234.138611 150.976212,229.474213 
z"/>
<path fill="#4BA2FE" opacity="1.000000" stroke="none" 
	d="
M76.666061,229.077316 
	C75.824028,231.518219 74.650093,234.037888 73.214142,236.776428 
	C74.079468,234.382217 75.206818,231.769150 76.666061,229.077316 
z"/>
<path fill="#4BA2FE" opacity="1.000000" stroke="none" 
	d="
M85.657135,214.068451 
	C84.569542,216.294724 83.153778,218.600906 81.397926,220.981262 
	C82.481552,218.753082 83.905258,216.450714 85.657135,214.068451 
z"/>
<path fill="#4BA2FE" opacity="1.000000" stroke="none" 
	d="
M89.590523,207.035004 
	C88.815819,209.186493 87.695992,211.414902 86.281998,213.816223 
	C87.073685,211.696716 88.159538,209.404312 89.590523,207.035004 
z"/>
<path fill="#4BA2FE" opacity="1.000000" stroke="none" 
	d="
M70.657494,241.048401 
	C70.461082,242.176254 69.958656,243.377731 69.199615,244.787170 
	C69.412491,243.704086 69.881981,242.413055 70.657494,241.048401 
z"/>
<path fill="#4998F7" opacity="1.000000" stroke="none" 
	d="
M132.759247,200.744843 
	C131.824829,201.118256 130.649323,201.277649 129.238876,201.209259 
	C130.175354,200.831268 131.346756,200.681046 132.759247,200.744843 
z"/>
<path fill="#4BA2FE" opacity="1.000000" stroke="none" 
	d="
M80.626587,223.060181 
	C80.479294,223.869247 80.013023,224.773926 79.266586,225.832245 
	C79.426811,225.042511 79.867203,224.099152 80.626587,223.060181 
z"/>
<path fill="#4BA2FE" opacity="1.000000" stroke="none" 
	d="
M78.656830,226.073380 
	C78.506073,226.887650 78.030602,227.787872 77.276825,228.843262 
	C77.443047,228.052078 77.887581,227.105698 78.656830,226.073380 
z"/>
<path fill="#7ED0FD" opacity="1.000000" stroke="none" 
	d="
M119.495277,155.037628 
	C119.591164,156.377930 119.346283,157.820892 119.033836,159.627045 
	C118.483284,160.246826 118.000298,160.503418 117.266403,160.868286 
	C117.728500,159.031113 118.441505,157.085709 119.495277,155.037628 
z"/>
<path fill="#3D8EFE" opacity="1.000000" stroke="none" 
	d="
M71.033150,292.338593 
	C71.686844,293.082672 72.342430,294.170837 73.001663,295.623352 
	C72.348557,294.886047 71.691803,293.784363 71.033150,292.338593 
z"/>
<path fill="#3D8EFE" opacity="1.000000" stroke="none" 
	d="
M154.935547,205.649750 
	C153.715988,205.210632 152.436462,204.425415 151.086075,203.312225 
	C152.301987,203.757401 153.588776,204.530533 154.935547,205.649750 
z"/>
<path fill="#5795FD" opacity="1.000000" stroke="none" 
	d="
M189.542267,257.059204 
	C189.883713,257.551147 189.935547,257.945190 190.000336,258.636414 
	C190.481064,261.343445 192.867523,263.310547 189.797455,266.296478 
	C188.258102,267.793671 190.265274,272.450195 189.038834,274.842407 
	C184.278717,284.127075 178.837204,293.061005 173.703949,302.156311 
	C170.554596,307.736450 167.699448,313.495026 164.297928,318.913391 
	C163.194550,320.670959 160.751678,321.569946 158.966568,322.921173 
	C155.884506,325.254089 152.837677,327.633545 149.390778,329.997986 
	C148.668854,328.582245 148.332275,327.162079 148.231232,325.131531 
	C151.703094,320.764435 154.495605,316.470703 158.263275,313.356903 
	C167.608902,305.633270 172.433228,294.915680 177.754715,284.663025 
	C182.086960,276.316315 186.573257,267.703827 186.140106,257.718323 
	C186.115540,257.152374 186.700806,256.559967 187.002243,255.979889 
	C187.752380,256.307037 188.502518,256.634155 189.542267,257.059204 
z"/>
<path fill="#8EA6FE" opacity="1.000000" stroke="none" 
	d="
M180.421417,330.993195 
	C179.897202,330.683960 179.835373,330.351135 179.671204,330.080353 
	C178.906433,328.818939 178.113342,327.574707 177.330399,326.324310 
	C178.943008,325.882050 180.555603,325.439789 182.583496,324.998779 
	C183.777725,326.705048 184.556686,328.410095 185.594543,330.681824 
	C184.447250,330.758118 182.641953,330.878143 180.421417,330.993195 
z"/>
<path fill="#4690FE" opacity="1.000000" stroke="none" 
	d="
M186.997681,255.655930 
	C186.700806,256.559967 186.115540,257.152374 186.140106,257.718323 
	C186.573257,267.703827 182.086960,276.316315 177.754715,284.663025 
	C172.433228,294.915680 167.608902,305.633270 158.263275,313.356903 
	C154.495605,316.470703 151.703094,320.764435 148.229126,324.759979 
	C145.950684,324.998596 143.909912,324.998444 141.431152,324.995483 
	C143.992554,320.400238 145.069351,314.363129 150.901245,311.882446 
	C151.449234,311.649323 151.862015,310.977783 152.218109,310.431885 
	C158.640961,300.585205 165.565781,291.014496 171.243698,280.754120 
	C174.277924,275.270996 175.153320,268.593506 177.006042,262.455963 
	C177.426422,261.063385 177.432465,259.179108 178.365234,258.375610 
	C181.326981,255.824295 181.033615,252.936996 180.018051,249.388245 
	C180.809479,248.755203 181.615906,248.509979 182.713104,248.133926 
	C183.750443,248.654678 184.496994,249.306244 185.515167,250.076614 
	C185.841217,250.593506 185.895660,250.991592 185.886444,251.926559 
	C186.203949,252.987503 186.585114,253.511566 186.966278,254.035629 
	C186.975235,254.467743 186.984192,254.899857 186.997681,255.655930 
z"/>
<path fill="#4998F7" opacity="1.000000" stroke="none" 
	d="
M173.533722,229.030518 
	C173.884872,230.175476 173.944046,231.197632 174.004791,232.605209 
	C172.584671,231.149796 171.162994,229.308990 169.875092,227.232758 
	C171.086502,227.634140 172.164124,228.270935 173.533722,229.030518 
z"/>
<path fill="#4998F7" opacity="1.000000" stroke="none" 
	d="
M157.909225,208.043961 
	C158.000000,208.000000 157.802139,208.324371 157.802139,208.324371 
	C157.802139,208.324371 157.818451,208.087921 157.909225,208.043961 
z"/>
<path fill="#36C499" opacity="1.000000" stroke="none" 
	d="
M163.516876,193.489838 
	C163.527832,193.514954 163.505920,193.464722 163.516876,193.489838 
z"/>
<path fill="#5795FD" opacity="1.000000" stroke="none" 
	d="
M186.963226,253.724396 
	C186.585114,253.511566 186.203949,252.987503 185.901245,252.228699 
	C185.979721,251.993973 186.399185,252.063828 186.602295,252.123749 
	C186.856995,252.593506 186.908600,253.003326 186.963226,253.724396 
z"/>
<path fill="#3287FF" opacity="1.000000" stroke="none" 
	d="
M151.233826,229.744461 
	C154.195221,234.138611 157.829575,237.944656 159.373550,242.464737 
	C161.425858,248.473083 162.521317,255.012619 162.761337,261.371735 
	C162.957397,266.565887 161.247818,271.822968 160.470901,277.065125 
	C159.525650,283.443146 154.960693,287.491730 151.023392,291.939240 
	C146.162018,297.430634 142.904739,304.349213 135.439758,307.470612 
	C128.093323,310.542419 120.946556,309.312805 113.753304,307.731506 
	C109.981331,306.902344 106.317894,304.105560 102.711960,304.289215 
	C94.120544,304.726715 92.147675,298.274048 89.018509,292.877655 
	C86.080444,287.810852 84.638237,282.408142 84.625664,276.374237 
	C84.619469,273.400757 81.835434,270.539612 81.096573,267.439758 
	C79.361359,260.159760 85.028053,254.950760 86.974777,248.674713 
	C87.303391,247.615280 88.705116,246.741150 88.730568,245.758591 
	C88.932640,237.957886 94.151726,232.266983 96.952660,225.571991 
	C98.360298,222.207367 100.790024,221.158279 104.349693,220.858459 
	C107.617722,220.583191 110.773552,219.067108 114.000526,218.176361 
	C115.729042,217.699249 117.496750,217.094284 119.258133,217.054855 
	C125.411507,216.917160 131.569870,216.986572 137.726242,217.004333 
	C143.208618,217.020157 147.013336,219.863983 148.857086,225.102371 
	C149.391327,226.620224 150.260544,228.020203 151.233826,229.744461 
z"/>
</svg>